<mxfile host="app.diagrams.net" modified="2021-05-10T21:10:18.495Z" agent="5.0 (Macintosh)" etag="ssE8aBDlcwWU9knJBAck" version="14.6.11" type="github">
  <diagram name="Page-1" id="13e1069c-82ec-6db2-03f1-153e76fe0fe0">
    <mxGraphModel dx="633" dy="319" grid="1" gridSize="10" guides="1" tooltips="1" connect="1" arrows="1" fold="1" page="1" pageScale="1" pageWidth="1100" pageHeight="850" background="#ffffff" math="0" shadow="0">
      <root>
        <mxCell id="0" />
        <mxCell id="1" parent="0" />
        <mxCell id="7baba1c4bc27f4b0-4" value="Server" style="shape=umlLifeline;perimeter=lifelinePerimeter;whiteSpace=wrap;html=1;container=1;collapsible=0;recursiveResize=0;outlineConnect=0;rounded=1;shadow=0;comic=0;labelBackgroundColor=none;strokeWidth=1;fontFamily=Verdana;fontSize=12;align=center;" parent="1" vertex="1">
          <mxGeometry x="750" y="70" width="100" height="4120" as="geometry" />
        </mxCell>
        <mxCell id="7baba1c4bc27f4b0-16" value="" style="html=1;points=[];perimeter=orthogonalPerimeter;rounded=0;shadow=0;comic=0;labelBackgroundColor=none;strokeWidth=1;fontFamily=Verdana;fontSize=12;align=center;" parent="7baba1c4bc27f4b0-4" vertex="1">
          <mxGeometry x="45" y="110" width="10" height="3940" as="geometry" />
        </mxCell>
        <mxCell id="7baba1c4bc27f4b0-8" value="Client" style="shape=umlLifeline;perimeter=lifelinePerimeter;whiteSpace=wrap;html=1;container=1;collapsible=0;recursiveResize=0;outlineConnect=0;rounded=1;shadow=0;comic=0;labelBackgroundColor=none;strokeWidth=1;fontFamily=Verdana;fontSize=12;align=center;" parent="1" vertex="1">
          <mxGeometry x="100" y="80" width="100" height="4110" as="geometry" />
        </mxCell>
        <mxCell id="7baba1c4bc27f4b0-9" value="" style="html=1;points=[];perimeter=orthogonalPerimeter;rounded=0;shadow=0;comic=0;labelBackgroundColor=none;strokeWidth=1;fontFamily=Verdana;fontSize=12;align=center;" parent="7baba1c4bc27f4b0-8" vertex="1">
          <mxGeometry x="45" y="100" width="10" height="3940" as="geometry" />
        </mxCell>
        <mxCell id="ir6YCfh4k-mO9yrdAhlO-7" value="&lt;div style=&quot;box-sizing: border-box ; font-family: &amp;#34;segoe ui&amp;#34; , , &amp;#34;apple color emoji&amp;#34; , &amp;#34;segoe ui emoji&amp;#34; , sans-serif ; font-size: 14px ; font-style: normal ; font-weight: 400 ; letter-spacing: normal ; text-indent: 0px ; text-transform: none ; word-spacing: 0px&quot;&gt;-n (new game) n (number of player) nickname&lt;/div&gt;" style="text;html=1;align=center;verticalAlign=middle;resizable=0;points=[];autosize=1;strokeColor=none;" vertex="1" parent="1">
          <mxGeometry x="300" y="160" width="300" height="20" as="geometry" />
        </mxCell>
        <mxCell id="ir6YCfh4k-mO9yrdAhlO-10" value="Check" style="rounded=1;whiteSpace=wrap;html=1;labelBackgroundColor=#ffffff;" vertex="1" parent="1">
          <mxGeometry x="850" y="190" width="60" height="30" as="geometry" />
        </mxCell>
        <mxCell id="ir6YCfh4k-mO9yrdAhlO-15" value="&lt;div style=&quot;box-sizing: border-box ; font-family: &amp;#34;segoe ui&amp;#34; , , &amp;#34;apple color emoji&amp;#34; , &amp;#34;segoe ui emoji&amp;#34; , sans-serif ; font-size: 14px ; font-style: normal ; font-weight: 400 ; letter-spacing: normal ; text-indent: 0px ; text-transform: none ; word-spacing: 0px&quot;&gt;-o (join old game) n (game number) nickname&lt;/div&gt;" style="text;html=1;align=center;verticalAlign=middle;resizable=0;points=[];autosize=1;strokeColor=none;" vertex="1" parent="1">
          <mxGeometry x="300" y="300" width="300" height="20" as="geometry" />
        </mxCell>
        <mxCell id="ir6YCfh4k-mO9yrdAhlO-17" value="Check" style="rounded=1;whiteSpace=wrap;html=1;labelBackgroundColor=#ffffff;" vertex="1" parent="1">
          <mxGeometry x="850" y="330" width="60" height="30" as="geometry" />
        </mxCell>
        <mxCell id="ir6YCfh4k-mO9yrdAhlO-22" value="Wake Up" style="text;html=1;align=center;verticalAlign=middle;resizable=0;points=[];autosize=1;strokeColor=none;" vertex="1" parent="1">
          <mxGeometry x="420" y="415" width="60" height="20" as="geometry" />
        </mxCell>
        <mxCell id="ir6YCfh4k-mO9yrdAhlO-24" value="Chose Discard Leader Card " style="text;html=1;align=center;verticalAlign=middle;resizable=0;points=[];autosize=1;strokeColor=none;" vertex="1" parent="1">
          <mxGeometry x="370" y="510" width="160" height="20" as="geometry" />
        </mxCell>
        <mxCell id="ir6YCfh4k-mO9yrdAhlO-28" value="Check" style="rounded=1;whiteSpace=wrap;html=1;labelBackgroundColor=#ffffff;" vertex="1" parent="1">
          <mxGeometry x="850" y="530" width="60" height="30" as="geometry" />
        </mxCell>
        <mxCell id="ir6YCfh4k-mO9yrdAhlO-29" value="Confirmed Action" style="text;html=1;align=center;verticalAlign=middle;resizable=0;points=[];autosize=1;strokeColor=none;" vertex="1" parent="1">
          <mxGeometry x="395" y="600" width="110" height="20" as="geometry" />
        </mxCell>
        <mxCell id="ir6YCfh4k-mO9yrdAhlO-30" value="Chose Play Leader Card" style="text;html=1;align=center;verticalAlign=middle;resizable=0;points=[];autosize=1;strokeColor=none;" vertex="1" parent="1">
          <mxGeometry x="375" y="740" width="150" height="20" as="geometry" />
        </mxCell>
        <mxCell id="ir6YCfh4k-mO9yrdAhlO-31" value="Check" style="rounded=1;whiteSpace=wrap;html=1;labelBackgroundColor=#ffffff;" vertex="1" parent="1">
          <mxGeometry x="850" y="760" width="60" height="30" as="geometry" />
        </mxCell>
        <mxCell id="ir6YCfh4k-mO9yrdAhlO-32" value="Confirmed Action" style="text;html=1;align=center;verticalAlign=middle;resizable=0;points=[];autosize=1;strokeColor=none;" vertex="1" parent="1">
          <mxGeometry x="395" y="840" width="110" height="20" as="geometry" />
        </mxCell>
        <mxCell id="ir6YCfh4k-mO9yrdAhlO-33" value="Chose No Action Leader Card" style="text;html=1;align=center;verticalAlign=middle;resizable=0;points=[];autosize=1;strokeColor=none;" vertex="1" parent="1">
          <mxGeometry x="360" y="950" width="180" height="20" as="geometry" />
        </mxCell>
        <mxCell id="ir6YCfh4k-mO9yrdAhlO-34" value="Check" style="rounded=1;whiteSpace=wrap;html=1;labelBackgroundColor=#ffffff;" vertex="1" parent="1">
          <mxGeometry x="850" y="970" width="60" height="30" as="geometry" />
        </mxCell>
        <mxCell id="ir6YCfh4k-mO9yrdAhlO-35" value="Confirmed Action" style="text;html=1;align=center;verticalAlign=middle;resizable=0;points=[];autosize=1;strokeColor=none;" vertex="1" parent="1">
          <mxGeometry x="395" y="1040" width="110" height="20" as="geometry" />
        </mxCell>
        <mxCell id="ir6YCfh4k-mO9yrdAhlO-36" value="Discard Leader Card" style="text;html=1;align=center;verticalAlign=middle;resizable=0;points=[];autosize=1;strokeColor=none;" vertex="1" parent="1">
          <mxGeometry x="385" y="1150" width="130" height="20" as="geometry" />
        </mxCell>
        <mxCell id="ir6YCfh4k-mO9yrdAhlO-37" value="Confirmed Action" style="text;html=1;align=center;verticalAlign=middle;resizable=0;points=[];autosize=1;strokeColor=none;" vertex="1" parent="1">
          <mxGeometry x="395" y="1240" width="110" height="20" as="geometry" />
        </mxCell>
        <mxCell id="ir6YCfh4k-mO9yrdAhlO-38" value="Check" style="rounded=1;whiteSpace=wrap;html=1;labelBackgroundColor=#ffffff;" vertex="1" parent="1">
          <mxGeometry x="850" y="1170" width="60" height="30" as="geometry" />
        </mxCell>
        <mxCell id="ir6YCfh4k-mO9yrdAhlO-39" value="Play Leader Card" style="text;html=1;align=center;verticalAlign=middle;resizable=0;points=[];autosize=1;strokeColor=none;" vertex="1" parent="1">
          <mxGeometry x="395" y="1340" width="110" height="20" as="geometry" />
        </mxCell>
        <mxCell id="ir6YCfh4k-mO9yrdAhlO-40" value="Confirmed Action" style="text;html=1;align=center;verticalAlign=middle;resizable=0;points=[];autosize=1;strokeColor=none;" vertex="1" parent="1">
          <mxGeometry x="395" y="1430" width="110" height="20" as="geometry" />
        </mxCell>
        <mxCell id="ir6YCfh4k-mO9yrdAhlO-41" value="Check" style="rounded=1;whiteSpace=wrap;html=1;labelBackgroundColor=#ffffff;" vertex="1" parent="1">
          <mxGeometry x="850" y="1360" width="60" height="30" as="geometry" />
        </mxCell>
        <mxCell id="ir6YCfh4k-mO9yrdAhlO-42" value="Select Normal Action(Take Resource From The Market, Buy Development Card, Activate Production)" style="text;html=1;align=center;verticalAlign=middle;resizable=0;points=[];autosize=1;strokeColor=none;" vertex="1" parent="1">
          <mxGeometry x="200" y="1540" width="550" height="20" as="geometry" />
        </mxCell>
        <mxCell id="ir6YCfh4k-mO9yrdAhlO-43" value="Check" style="rounded=1;whiteSpace=wrap;html=1;labelBackgroundColor=#ffffff;" vertex="1" parent="1">
          <mxGeometry x="850" y="1560" width="60" height="30" as="geometry" />
        </mxCell>
        <mxCell id="ir6YCfh4k-mO9yrdAhlO-44" value="Confirmed Action" style="text;html=1;align=center;verticalAlign=middle;resizable=0;points=[];autosize=1;strokeColor=none;" vertex="1" parent="1">
          <mxGeometry x="395" y="1600" width="110" height="20" as="geometry" />
        </mxCell>
        <mxCell id="ir6YCfh4k-mO9yrdAhlO-45" value="Take Resources From The Market(Row or Column)" style="text;html=1;align=center;verticalAlign=middle;resizable=0;points=[];autosize=1;strokeColor=none;" vertex="1" parent="1">
          <mxGeometry x="305" y="1710" width="290" height="20" as="geometry" />
        </mxCell>
        <mxCell id="ir6YCfh4k-mO9yrdAhlO-46" value="Check" style="rounded=1;whiteSpace=wrap;html=1;labelBackgroundColor=#ffffff;" vertex="1" parent="1">
          <mxGeometry x="850" y="1730" width="60" height="30" as="geometry" />
        </mxCell>
        <mxCell id="ir6YCfh4k-mO9yrdAhlO-47" value="Confirmed Action" style="text;html=1;align=center;verticalAlign=middle;resizable=0;points=[];autosize=1;strokeColor=none;" vertex="1" parent="1">
          <mxGeometry x="395" y="1770" width="110" height="20" as="geometry" />
        </mxCell>
        <mxCell id="ir6YCfh4k-mO9yrdAhlO-48" value="Add Resource To(LeaderCard, WareHouseDepots, Discard)" style="text;html=1;align=center;verticalAlign=middle;resizable=0;points=[];autosize=1;strokeColor=none;" vertex="1" parent="1">
          <mxGeometry x="285" y="1860" width="330" height="20" as="geometry" />
        </mxCell>
        <mxCell id="ir6YCfh4k-mO9yrdAhlO-49" value="Check" style="rounded=1;whiteSpace=wrap;html=1;labelBackgroundColor=#ffffff;" vertex="1" parent="1">
          <mxGeometry x="850" y="1880" width="60" height="30" as="geometry" />
        </mxCell>
        <mxCell id="ir6YCfh4k-mO9yrdAhlO-50" value="Confirmed Action" style="text;html=1;align=center;verticalAlign=middle;resizable=0;points=[];autosize=1;strokeColor=none;" vertex="1" parent="1">
          <mxGeometry x="395" y="1920" width="110" height="20" as="geometry" />
        </mxCell>
        <mxCell id="ir6YCfh4k-mO9yrdAhlO-51" value="Change White Marble With" style="text;html=1;align=center;verticalAlign=middle;resizable=0;points=[];autosize=1;strokeColor=none;" vertex="1" parent="1">
          <mxGeometry x="370" y="2010" width="160" height="20" as="geometry" />
        </mxCell>
        <mxCell id="ir6YCfh4k-mO9yrdAhlO-52" value="Check" style="rounded=1;whiteSpace=wrap;html=1;labelBackgroundColor=#ffffff;" vertex="1" parent="1">
          <mxGeometry x="850" y="2030" width="60" height="30" as="geometry" />
        </mxCell>
        <mxCell id="ir6YCfh4k-mO9yrdAhlO-53" value="Confirmed Action" style="text;html=1;align=center;verticalAlign=middle;resizable=0;points=[];autosize=1;strokeColor=none;" vertex="1" parent="1">
          <mxGeometry x="395" y="2070" width="110" height="20" as="geometry" />
        </mxCell>
        <mxCell id="ir6YCfh4k-mO9yrdAhlO-54" value="Buy Development Card" style="text;html=1;align=center;verticalAlign=middle;resizable=0;points=[];autosize=1;strokeColor=none;" vertex="1" parent="1">
          <mxGeometry x="380" y="2160" width="140" height="20" as="geometry" />
        </mxCell>
        <mxCell id="ir6YCfh4k-mO9yrdAhlO-55" value="Check" style="rounded=1;whiteSpace=wrap;html=1;labelBackgroundColor=#ffffff;" vertex="1" parent="1">
          <mxGeometry x="850" y="2180" width="60" height="30" as="geometry" />
        </mxCell>
        <mxCell id="ir6YCfh4k-mO9yrdAhlO-56" value="Confirmed Action" style="text;html=1;align=center;verticalAlign=middle;resizable=0;points=[];autosize=1;strokeColor=none;" vertex="1" parent="1">
          <mxGeometry x="395" y="2230" width="110" height="20" as="geometry" />
        </mxCell>
        <mxCell id="ir6YCfh4k-mO9yrdAhlO-57" value="Pay With Strong Box(Faith, Coin, Stone, Shield, Servant, White)" style="text;html=1;align=center;verticalAlign=middle;resizable=0;points=[];autosize=1;strokeColor=none;" vertex="1" parent="1">
          <mxGeometry x="270" y="2330" width="360" height="20" as="geometry" />
        </mxCell>
        <mxCell id="ir6YCfh4k-mO9yrdAhlO-58" value="Confirmed Action" style="text;html=1;align=center;verticalAlign=middle;resizable=0;points=[];autosize=1;strokeColor=none;" vertex="1" parent="1">
          <mxGeometry x="395" y="2400" width="110" height="20" as="geometry" />
        </mxCell>
        <mxCell id="ir6YCfh4k-mO9yrdAhlO-59" value="Check" style="rounded=1;whiteSpace=wrap;html=1;labelBackgroundColor=#ffffff;" vertex="1" parent="1">
          <mxGeometry x="850" y="2350" width="60" height="30" as="geometry" />
        </mxCell>
        <mxCell id="ir6YCfh4k-mO9yrdAhlO-60" value="Pay With Extra Storage LeaderCard(Position)" style="text;html=1;align=center;verticalAlign=middle;resizable=0;points=[];autosize=1;strokeColor=none;" vertex="1" parent="1">
          <mxGeometry x="320" y="2500" width="260" height="20" as="geometry" />
        </mxCell>
        <mxCell id="ir6YCfh4k-mO9yrdAhlO-61" value="Confirmed Action" style="text;html=1;align=center;verticalAlign=middle;resizable=0;points=[];autosize=1;strokeColor=none;" vertex="1" parent="1">
          <mxGeometry x="395" y="2570" width="110" height="20" as="geometry" />
        </mxCell>
        <mxCell id="ir6YCfh4k-mO9yrdAhlO-62" value="Check" style="rounded=1;whiteSpace=wrap;html=1;labelBackgroundColor=#ffffff;" vertex="1" parent="1">
          <mxGeometry x="850" y="2520" width="60" height="30" as="geometry" />
        </mxCell>
        <mxCell id="ir6YCfh4k-mO9yrdAhlO-63" value="Pay With Extra Storage LeaderCard(Position)" style="text;html=1;align=center;verticalAlign=middle;resizable=0;points=[];autosize=1;strokeColor=none;" vertex="1" parent="1">
          <mxGeometry x="320" y="2670" width="260" height="20" as="geometry" />
        </mxCell>
        <mxCell id="ir6YCfh4k-mO9yrdAhlO-64" value="Confirmed Action" style="text;html=1;align=center;verticalAlign=middle;resizable=0;points=[];autosize=1;strokeColor=none;" vertex="1" parent="1">
          <mxGeometry x="395" y="2740" width="110" height="20" as="geometry" />
        </mxCell>
        <mxCell id="ir6YCfh4k-mO9yrdAhlO-65" value="Check" style="rounded=1;whiteSpace=wrap;html=1;labelBackgroundColor=#ffffff;" vertex="1" parent="1">
          <mxGeometry x="850" y="2690" width="60" height="30" as="geometry" />
        </mxCell>
        <mxCell id="ir6YCfh4k-mO9yrdAhlO-66" value="Place Development Card(Position)" style="text;html=1;align=center;verticalAlign=middle;resizable=0;points=[];autosize=1;strokeColor=none;" vertex="1" parent="1">
          <mxGeometry x="350" y="2860" width="200" height="20" as="geometry" />
        </mxCell>
        <mxCell id="ir6YCfh4k-mO9yrdAhlO-67" value="Confirmed Action" style="text;html=1;align=center;verticalAlign=middle;resizable=0;points=[];autosize=1;strokeColor=none;" vertex="1" parent="1">
          <mxGeometry x="395" y="2930" width="110" height="20" as="geometry" />
        </mxCell>
        <mxCell id="ir6YCfh4k-mO9yrdAhlO-68" value="Check" style="rounded=1;whiteSpace=wrap;html=1;labelBackgroundColor=#ffffff;" vertex="1" parent="1">
          <mxGeometry x="850" y="2880" width="60" height="30" as="geometry" />
        </mxCell>
        <mxCell id="ir6YCfh4k-mO9yrdAhlO-69" value="Select Production Development Card (Position)" style="text;html=1;align=center;verticalAlign=middle;resizable=0;points=[];autosize=1;strokeColor=none;" vertex="1" parent="1">
          <mxGeometry x="315" y="3050" width="270" height="20" as="geometry" />
        </mxCell>
        <mxCell id="ir6YCfh4k-mO9yrdAhlO-70" value="Confirmed Action" style="text;html=1;align=center;verticalAlign=middle;resizable=0;points=[];autosize=1;strokeColor=none;" vertex="1" parent="1">
          <mxGeometry x="395" y="3120" width="110" height="20" as="geometry" />
        </mxCell>
        <mxCell id="ir6YCfh4k-mO9yrdAhlO-71" value="Check" style="rounded=1;whiteSpace=wrap;html=1;labelBackgroundColor=#ffffff;" vertex="1" parent="1">
          <mxGeometry x="850" y="3070" width="60" height="30" as="geometry" />
        </mxCell>
        <mxCell id="ir6YCfh4k-mO9yrdAhlO-72" value="Select Production Power Leader Card(Position)" style="text;html=1;align=center;verticalAlign=middle;resizable=0;points=[];autosize=1;strokeColor=none;" vertex="1" parent="1">
          <mxGeometry x="315" y="3230" width="270" height="20" as="geometry" />
        </mxCell>
        <mxCell id="ir6YCfh4k-mO9yrdAhlO-73" value="Confirmed Action" style="text;html=1;align=center;verticalAlign=middle;resizable=0;points=[];autosize=1;strokeColor=none;" vertex="1" parent="1">
          <mxGeometry x="395" y="3300" width="110" height="20" as="geometry" />
        </mxCell>
        <mxCell id="ir6YCfh4k-mO9yrdAhlO-74" value="Check" style="rounded=1;whiteSpace=wrap;html=1;labelBackgroundColor=#ffffff;" vertex="1" parent="1">
          <mxGeometry x="850" y="3250" width="60" height="30" as="geometry" />
        </mxCell>
        <mxCell id="ir6YCfh4k-mO9yrdAhlO-75" value="Select Default Production Power" style="text;html=1;align=center;verticalAlign=middle;resizable=0;points=[];autosize=1;strokeColor=none;" vertex="1" parent="1">
          <mxGeometry x="355" y="3400" width="190" height="20" as="geometry" />
        </mxCell>
        <mxCell id="ir6YCfh4k-mO9yrdAhlO-76" value="Confirmed Action" style="text;html=1;align=center;verticalAlign=middle;resizable=0;points=[];autosize=1;strokeColor=none;" vertex="1" parent="1">
          <mxGeometry x="395" y="3470" width="110" height="20" as="geometry" />
        </mxCell>
        <mxCell id="ir6YCfh4k-mO9yrdAhlO-77" value="Check" style="rounded=1;whiteSpace=wrap;html=1;labelBackgroundColor=#ffffff;" vertex="1" parent="1">
          <mxGeometry x="850" y="3420" width="60" height="30" as="geometry" />
        </mxCell>
        <mxCell id="ir6YCfh4k-mO9yrdAhlO-78" value="Obtain Generic Resource (Faith, Coin, Stone, Shield, Servant, White)" style="text;html=1;align=center;verticalAlign=middle;resizable=0;points=[];autosize=1;strokeColor=none;" vertex="1" parent="1">
          <mxGeometry x="260" y="3570" width="380" height="20" as="geometry" />
        </mxCell>
        <mxCell id="ir6YCfh4k-mO9yrdAhlO-79" value="Confirmed Action" style="text;html=1;align=center;verticalAlign=middle;resizable=0;points=[];autosize=1;strokeColor=none;" vertex="1" parent="1">
          <mxGeometry x="395" y="3640" width="110" height="20" as="geometry" />
        </mxCell>
        <mxCell id="ir6YCfh4k-mO9yrdAhlO-80" value="Check" style="rounded=1;whiteSpace=wrap;html=1;labelBackgroundColor=#ffffff;" vertex="1" parent="1">
          <mxGeometry x="850" y="3590" width="60" height="30" as="geometry" />
        </mxCell>
        <mxCell id="ir6YCfh4k-mO9yrdAhlO-81" value="Start Payment" style="text;html=1;align=center;verticalAlign=middle;resizable=0;points=[];autosize=1;strokeColor=none;" vertex="1" parent="1">
          <mxGeometry x="405" y="3750" width="90" height="20" as="geometry" />
        </mxCell>
        <mxCell id="ir6YCfh4k-mO9yrdAhlO-82" value="Confirmed Action" style="text;html=1;align=center;verticalAlign=middle;resizable=0;points=[];autosize=1;strokeColor=none;" vertex="1" parent="1">
          <mxGeometry x="395" y="3820" width="110" height="20" as="geometry" />
        </mxCell>
        <mxCell id="ir6YCfh4k-mO9yrdAhlO-83" value="Check" style="rounded=1;whiteSpace=wrap;html=1;labelBackgroundColor=#ffffff;" vertex="1" parent="1">
          <mxGeometry x="850" y="3770" width="60" height="30" as="geometry" />
        </mxCell>
        <mxCell id="ir6YCfh4k-mO9yrdAhlO-84" value="Draw Solo Action Token" style="text;html=1;align=center;verticalAlign=middle;resizable=0;points=[];autosize=1;strokeColor=none;" vertex="1" parent="1">
          <mxGeometry x="380" y="3940" width="140" height="20" as="geometry" />
        </mxCell>
        <mxCell id="ir6YCfh4k-mO9yrdAhlO-85" value="Confirmed Action" style="text;html=1;align=center;verticalAlign=middle;resizable=0;points=[];autosize=1;strokeColor=none;" vertex="1" parent="1">
          <mxGeometry x="395" y="4010" width="110" height="20" as="geometry" />
        </mxCell>
        <mxCell id="ir6YCfh4k-mO9yrdAhlO-86" value="Check" style="rounded=1;whiteSpace=wrap;html=1;labelBackgroundColor=#ffffff;" vertex="1" parent="1">
          <mxGeometry x="850" y="3960" width="60" height="30" as="geometry" />
        </mxCell>
        <mxCell id="ir6YCfh4k-mO9yrdAhlO-87" value="Server" style="shape=umlLifeline;perimeter=lifelinePerimeter;whiteSpace=wrap;html=1;container=1;collapsible=0;recursiveResize=0;outlineConnect=0;rounded=1;shadow=0;comic=0;labelBackgroundColor=none;strokeWidth=1;fontFamily=Verdana;fontSize=12;align=center;" vertex="1" parent="1">
          <mxGeometry x="750" y="4360" width="100" height="6020" as="geometry" />
        </mxCell>
        <mxCell id="ir6YCfh4k-mO9yrdAhlO-88" value="" style="html=1;points=[];perimeter=orthogonalPerimeter;rounded=0;shadow=0;comic=0;labelBackgroundColor=none;strokeWidth=1;fontFamily=Verdana;fontSize=12;align=center;" vertex="1" parent="ir6YCfh4k-mO9yrdAhlO-87">
          <mxGeometry x="45" y="80" width="10" height="5880" as="geometry" />
        </mxCell>
        <mxCell id="ir6YCfh4k-mO9yrdAhlO-90" value="Client" style="shape=umlLifeline;perimeter=lifelinePerimeter;whiteSpace=wrap;html=1;container=1;collapsible=0;recursiveResize=0;outlineConnect=0;rounded=1;shadow=0;comic=0;labelBackgroundColor=none;strokeWidth=1;fontFamily=Verdana;fontSize=12;align=center;" vertex="1" parent="1">
          <mxGeometry x="100" y="4360" width="100" height="5330" as="geometry" />
        </mxCell>
        <mxCell id="ir6YCfh4k-mO9yrdAhlO-92" value="Error Messages" style="text;html=1;align=center;verticalAlign=middle;resizable=0;points=[];autosize=1;strokeColor=none;" vertex="1" parent="1">
          <mxGeometry x="100" y="4290" width="100" height="20" as="geometry" />
        </mxCell>
        <mxCell id="ir6YCfh4k-mO9yrdAhlO-95" value="Check" style="rounded=1;whiteSpace=wrap;html=1;labelBackgroundColor=#ffffff;" vertex="1" parent="1">
          <mxGeometry x="855" y="4480" width="60" height="30" as="geometry" />
        </mxCell>
        <mxCell id="ir6YCfh4k-mO9yrdAhlO-96" value="Not Your Turn" style="text;html=1;align=center;verticalAlign=middle;resizable=0;points=[];autosize=1;strokeColor=none;" vertex="1" parent="1">
          <mxGeometry x="405" y="4520" width="90" height="20" as="geometry" />
        </mxCell>
        <mxCell id="ir6YCfh4k-mO9yrdAhlO-98" value="No Cards Discard" style="text;html=1;align=center;verticalAlign=middle;resizable=0;points=[];autosize=1;strokeColor=none;" vertex="1" parent="1">
          <mxGeometry x="395" y="4700" width="110" height="20" as="geometry" />
        </mxCell>
        <mxCell id="ir6YCfh4k-mO9yrdAhlO-103" value="Check" style="rounded=1;whiteSpace=wrap;html=1;labelBackgroundColor=#ffffff;" vertex="1" parent="1">
          <mxGeometry x="850" y="5300" width="60" height="30" as="geometry" />
        </mxCell>
        <mxCell id="ir6YCfh4k-mO9yrdAhlO-125" value="Error Invalid Action" style="text;html=1;align=center;verticalAlign=middle;resizable=0;points=[];autosize=1;strokeColor=none;" vertex="1" parent="1">
          <mxGeometry x="390" y="4830" width="120" height="20" as="geometry" />
        </mxCell>
        <mxCell id="ir6YCfh4k-mO9yrdAhlO-126" value="Error Already Discarded Position" style="text;html=1;align=center;verticalAlign=middle;resizable=0;points=[];autosize=1;strokeColor=none;" vertex="1" parent="1">
          <mxGeometry x="355" y="4980" width="190" height="20" as="geometry" />
        </mxCell>
        <mxCell id="ir6YCfh4k-mO9yrdAhlO-127" value="Error Game Ended" style="text;html=1;align=center;verticalAlign=middle;resizable=0;points=[];autosize=1;strokeColor=none;" vertex="1" parent="1">
          <mxGeometry x="390" y="5100" width="120" height="20" as="geometry" />
        </mxCell>
        <mxCell id="ir6YCfh4k-mO9yrdAhlO-128" value="Error Typo" style="text;html=1;align=center;verticalAlign=middle;resizable=0;points=[];autosize=1;strokeColor=none;" vertex="1" parent="1">
          <mxGeometry x="415" y="5210" width="70" height="20" as="geometry" />
        </mxCell>
        <mxCell id="ir6YCfh4k-mO9yrdAhlO-129" value="Error No Cards Play" style="text;html=1;align=center;verticalAlign=middle;resizable=0;points=[];autosize=1;strokeColor=none;" vertex="1" parent="1">
          <mxGeometry x="390" y="5350" width="120" height="20" as="geometry" />
        </mxCell>
        <mxCell id="ir6YCfh4k-mO9yrdAhlO-130" value="Error Requirements" style="text;html=1;align=center;verticalAlign=middle;resizable=0;points=[];autosize=1;strokeColor=none;" vertex="1" parent="1">
          <mxGeometry x="390" y="5470" width="120" height="20" as="geometry" />
        </mxCell>
        <mxCell id="ir6YCfh4k-mO9yrdAhlO-131" value="Error No Resource A" style="text;html=1;align=center;verticalAlign=middle;resizable=0;points=[];autosize=1;strokeColor=none;" vertex="1" parent="1">
          <mxGeometry x="385" y="5620" width="130" height="20" as="geometry" />
        </mxCell>
        <mxCell id="ir6YCfh4k-mO9yrdAhlO-132" value="Error Different Storage Type" style="text;html=1;align=center;verticalAlign=middle;resizable=0;points=[];autosize=1;strokeColor=none;" vertex="1" parent="1">
          <mxGeometry x="365" y="5790" width="170" height="20" as="geometry" />
        </mxCell>
        <mxCell id="ir6YCfh4k-mO9yrdAhlO-133" value="Error Occupied Slot Lc" style="text;html=1;align=center;verticalAlign=middle;resizable=0;points=[];autosize=1;strokeColor=none;" vertex="1" parent="1">
          <mxGeometry x="380" y="5980" width="140" height="20" as="geometry" />
        </mxCell>
        <mxCell id="ir6YCfh4k-mO9yrdAhlO-134" value="Error Occupied Slot Rc" style="text;html=1;align=center;verticalAlign=middle;resizable=0;points=[];autosize=1;strokeColor=none;" vertex="1" parent="1">
          <mxGeometry x="380" y="6110" width="140" height="20" as="geometry" />
        </mxCell>
        <mxCell id="ir6YCfh4k-mO9yrdAhlO-135" value="Error Resource Already Present Other Shelf" style="text;html=1;align=center;verticalAlign=middle;resizable=0;points=[];autosize=1;strokeColor=none;" vertex="1" parent="1">
          <mxGeometry x="325" y="6260" width="250" height="20" as="geometry" />
        </mxCell>
        <mxCell id="ir6YCfh4k-mO9yrdAhlO-136" value="Error Different Resource Already Present" style="text;html=1;align=center;verticalAlign=middle;resizable=0;points=[];autosize=1;strokeColor=none;" vertex="1" parent="1">
          <mxGeometry x="335" y="6430" width="230" height="20" as="geometry" />
        </mxCell>
        <mxCell id="ir6YCfh4k-mO9yrdAhlO-137" value="Error White Marble" style="text;html=1;align=center;verticalAlign=middle;resizable=0;points=[];autosize=1;strokeColor=none;" vertex="1" parent="1">
          <mxGeometry x="390" y="6620" width="120" height="20" as="geometry" />
        </mxCell>
        <mxCell id="ir6YCfh4k-mO9yrdAhlO-138" value="Error Faith Marble" style="text;html=1;align=center;verticalAlign=middle;resizable=0;points=[];autosize=1;strokeColor=none;" vertex="1" parent="1">
          <mxGeometry x="395" y="6750" width="110" height="20" as="geometry" />
        </mxCell>
        <mxCell id="ir6YCfh4k-mO9yrdAhlO-139" value="Error No White Marble" style="text;html=1;align=center;verticalAlign=middle;resizable=0;points=[];autosize=1;strokeColor=none;" vertex="1" parent="1">
          <mxGeometry x="385" y="6900" width="130" height="20" as="geometry" />
        </mxCell>
        <mxCell id="ir6YCfh4k-mO9yrdAhlO-140" value="Error Already Selected Something" style="text;html=1;align=center;verticalAlign=middle;resizable=0;points=[];autosize=1;strokeColor=none;" vertex="1" parent="1">
          <mxGeometry x="350" y="7070" width="200" height="20" as="geometry" />
        </mxCell>
        <mxCell id="ir6YCfh4k-mO9yrdAhlO-141" value="Error Not Enough Resources" style="text;html=1;align=center;verticalAlign=middle;resizable=0;points=[];autosize=1;strokeColor=none;" vertex="1" parent="1">
          <mxGeometry x="365" y="7260" width="170" height="20" as="geometry" />
        </mxCell>
        <mxCell id="ir6YCfh4k-mO9yrdAhlO-142" value="Error Empty Deck" style="text;html=1;align=center;verticalAlign=middle;resizable=0;points=[];autosize=1;strokeColor=none;" vertex="1" parent="1">
          <mxGeometry x="395" y="7390" width="110" height="20" as="geometry" />
        </mxCell>
        <mxCell id="ir6YCfh4k-mO9yrdAhlO-143" value="Error Invalid Position" style="text;html=1;align=center;verticalAlign=middle;resizable=0;points=[];autosize=1;strokeColor=none;" vertex="1" parent="1">
          <mxGeometry x="385" y="7540" width="130" height="20" as="geometry" />
        </mxCell>
        <mxCell id="ir6YCfh4k-mO9yrdAhlO-144" value="Error Invalid Selection" style="text;html=1;align=center;verticalAlign=middle;resizable=0;points=[];autosize=1;strokeColor=none;" vertex="1" parent="1">
          <mxGeometry x="385" y="7710" width="130" height="20" as="geometry" />
        </mxCell>
        <mxCell id="ir6YCfh4k-mO9yrdAhlO-145" value="Error Wrong Resource" style="text;html=1;align=center;verticalAlign=middle;resizable=0;points=[];autosize=1;strokeColor=none;" vertex="1" parent="1">
          <mxGeometry x="380" y="7900" width="140" height="20" as="geometry" />
        </mxCell>
        <mxCell id="ir6YCfh4k-mO9yrdAhlO-153" value="Error Not Enough R" style="text;html=1;align=center;verticalAlign=middle;resizable=0;points=[];autosize=1;strokeColor=none;" vertex="1" parent="1">
          <mxGeometry x="390" y="8030" width="120" height="20" as="geometry" />
        </mxCell>
        <mxCell id="ir6YCfh4k-mO9yrdAhlO-154" value="Error Missing Resource" style="text;html=1;align=center;verticalAlign=middle;resizable=0;points=[];autosize=1;strokeColor=none;" vertex="1" parent="1">
          <mxGeometry x="380" y="8180" width="140" height="20" as="geometry" />
        </mxCell>
        <mxCell id="ir6YCfh4k-mO9yrdAhlO-155" value="Error Not Strong Box" style="text;html=1;align=center;verticalAlign=middle;resizable=0;points=[];autosize=1;strokeColor=none;" vertex="1" parent="1">
          <mxGeometry x="385" y="8350" width="130" height="20" as="geometry" />
        </mxCell>
        <mxCell id="ir6YCfh4k-mO9yrdAhlO-156" value="Error No Resource P" style="text;html=1;align=center;verticalAlign=middle;resizable=0;points=[];autosize=1;strokeColor=none;" vertex="1" parent="1">
          <mxGeometry x="385" y="8540" width="130" height="20" as="geometry" />
        </mxCell>
        <mxCell id="ir6YCfh4k-mO9yrdAhlO-157" value="Error Already Empty" style="text;html=1;align=center;verticalAlign=middle;resizable=0;points=[];autosize=1;strokeColor=none;" vertex="1" parent="1">
          <mxGeometry x="390" y="8710" width="120" height="20" as="geometry" />
        </mxCell>
        <mxCell id="ir6YCfh4k-mO9yrdAhlO-158" value="Error Not Es" style="text;html=1;align=center;verticalAlign=middle;resizable=0;points=[];autosize=1;strokeColor=none;" vertex="1" parent="1">
          <mxGeometry x="410" y="8905" width="80" height="20" as="geometry" />
        </mxCell>
        <mxCell id="ir6YCfh4k-mO9yrdAhlO-159" value="Error Empty Slot Es" style="text;html=1;align=center;verticalAlign=middle;resizable=0;points=[];autosize=1;strokeColor=none;" vertex="1" parent="1">
          <mxGeometry x="390" y="9040" width="120" height="20" as="geometry" />
        </mxCell>
        <mxCell id="ir6YCfh4k-mO9yrdAhlO-160" value="Error No Card Obtainable" style="text;html=1;align=center;verticalAlign=middle;resizable=0;points=[];autosize=1;strokeColor=none;" vertex="1" parent="1">
          <mxGeometry x="375" y="9190" width="150" height="20" as="geometry" />
        </mxCell>
        <mxCell id="ir6YCfh4k-mO9yrdAhlO-161" value="Error No Plc" style="text;html=1;align=center;verticalAlign=middle;resizable=0;points=[];autosize=1;strokeColor=none;" vertex="1" parent="1">
          <mxGeometry x="410" y="9360" width="80" height="20" as="geometry" />
        </mxCell>
        <mxCell id="ir6YCfh4k-mO9yrdAhlO-162" value="Error Generic Resource" style="text;html=1;align=center;verticalAlign=middle;resizable=0;points=[];autosize=1;strokeColor=none;" vertex="1" parent="1">
          <mxGeometry x="380" y="9740" width="140" height="20" as="geometry" />
        </mxCell>
        <mxCell id="ir6YCfh4k-mO9yrdAhlO-163" value="Error No Selected Powers" style="text;html=1;align=center;verticalAlign=middle;resizable=0;points=[];autosize=1;strokeColor=none;" vertex="1" parent="1">
          <mxGeometry x="375" y="10020" width="150" height="20" as="geometry" />
        </mxCell>
        <mxCell id="ir6YCfh4k-mO9yrdAhlO-164" value="Error Invalid Movement" style="text;html=1;align=center;verticalAlign=middle;resizable=0;points=[];autosize=1;strokeColor=none;" vertex="1" parent="1">
          <mxGeometry x="380" y="9550" width="140" height="20" as="geometry" />
        </mxCell>
        <mxCell id="ir6YCfh4k-mO9yrdAhlO-165" value="Error Invalid Enum" style="text;html=1;align=center;verticalAlign=middle;resizable=0;points=[];autosize=1;strokeColor=none;" vertex="1" parent="1">
          <mxGeometry x="395" y="9870" width="110" height="20" as="geometry" />
        </mxCell>
        <mxCell id="ir6YCfh4k-mO9yrdAhlO-166" value="Error No Development Card" style="text;html=1;align=center;verticalAlign=middle;resizable=0;points=[];autosize=1;strokeColor=none;" vertex="1" parent="1">
          <mxGeometry x="370" y="10200" width="160" height="20" as="geometry" />
        </mxCell>
        <mxCell id="ir6YCfh4k-mO9yrdAhlO-91" value="" style="html=1;points=[];perimeter=orthogonalPerimeter;rounded=0;shadow=0;comic=0;labelBackgroundColor=none;strokeWidth=1;fontFamily=Verdana;fontSize=12;align=center;" vertex="1" parent="1">
          <mxGeometry x="145" y="4440" width="10" height="5880" as="geometry" />
        </mxCell>
        <mxCell id="ir6YCfh4k-mO9yrdAhlO-177" value="" style="endArrow=classic;html=1;entryX=0.5;entryY=0;entryDx=0;entryDy=0;exitX=1.15;exitY=0.004;exitDx=0;exitDy=0;exitPerimeter=0;" edge="1" parent="1" source="ir6YCfh4k-mO9yrdAhlO-88" target="ir6YCfh4k-mO9yrdAhlO-95">
          <mxGeometry width="50" height="50" relative="1" as="geometry">
            <mxPoint x="810" y="4460" as="sourcePoint" />
            <mxPoint x="905" y="4420" as="targetPoint" />
            <Array as="points">
              <mxPoint x="885" y="4464" />
            </Array>
          </mxGeometry>
        </mxCell>
        <mxCell id="ir6YCfh4k-mO9yrdAhlO-179" value="" style="endArrow=classic;html=1;exitX=0.517;exitY=1.117;exitDx=0;exitDy=0;exitPerimeter=0;" edge="1" parent="1" source="ir6YCfh4k-mO9yrdAhlO-95">
          <mxGeometry width="50" height="50" relative="1" as="geometry">
            <mxPoint x="865" y="4600" as="sourcePoint" />
            <mxPoint x="805" y="4530" as="targetPoint" />
            <Array as="points">
              <mxPoint x="886" y="4530" />
            </Array>
          </mxGeometry>
        </mxCell>
        <mxCell id="ir6YCfh4k-mO9yrdAhlO-181" value="" style="endArrow=classic;html=1;exitX=-0.2;exitY=0.017;exitDx=0;exitDy=0;exitPerimeter=0;entryX=1.05;entryY=0.017;entryDx=0;entryDy=0;entryPerimeter=0;" edge="1" parent="1" source="ir6YCfh4k-mO9yrdAhlO-88" target="ir6YCfh4k-mO9yrdAhlO-91">
          <mxGeometry width="50" height="50" relative="1" as="geometry">
            <mxPoint x="560" y="4630" as="sourcePoint" />
            <mxPoint x="160" y="4553" as="targetPoint" />
          </mxGeometry>
        </mxCell>
        <mxCell id="ir6YCfh4k-mO9yrdAhlO-184" value="" style="endArrow=classic;html=1;exitX=-0.2;exitY=0.017;exitDx=0;exitDy=0;exitPerimeter=0;entryX=1.05;entryY=0.017;entryDx=0;entryDy=0;entryPerimeter=0;" edge="1" parent="1">
          <mxGeometry width="50" height="50" relative="1" as="geometry">
            <mxPoint x="792.5" y="4720" as="sourcePoint" />
            <mxPoint x="155" y="4720" as="targetPoint" />
          </mxGeometry>
        </mxCell>
        <mxCell id="ir6YCfh4k-mO9yrdAhlO-224" value="" style="endArrow=classic;html=1;exitX=0.517;exitY=1.117;exitDx=0;exitDy=0;exitPerimeter=0;" edge="1" parent="1" target="ir6YCfh4k-mO9yrdAhlO-88">
          <mxGeometry width="50" height="50" relative="1" as="geometry">
            <mxPoint x="881.02" y="5330" as="sourcePoint" />
            <mxPoint x="810" y="5346" as="targetPoint" />
            <Array as="points">
              <mxPoint x="881" y="5346.49" />
              <mxPoint x="850" y="5346" />
            </Array>
          </mxGeometry>
        </mxCell>
        <mxCell id="ir6YCfh4k-mO9yrdAhlO-254" value="" style="endArrow=classic;html=1;exitX=-0.2;exitY=0.017;exitDx=0;exitDy=0;exitPerimeter=0;entryX=1.05;entryY=0.017;entryDx=0;entryDy=0;entryPerimeter=0;" edge="1" parent="1">
          <mxGeometry width="50" height="50" relative="1" as="geometry">
            <mxPoint x="793.75" y="4850" as="sourcePoint" />
            <mxPoint x="156.25" y="4850" as="targetPoint" />
          </mxGeometry>
        </mxCell>
        <mxCell id="ir6YCfh4k-mO9yrdAhlO-255" value="" style="endArrow=classic;html=1;exitX=-0.2;exitY=0.017;exitDx=0;exitDy=0;exitPerimeter=0;entryX=1.05;entryY=0.017;entryDx=0;entryDy=0;entryPerimeter=0;" edge="1" parent="1">
          <mxGeometry width="50" height="50" relative="1" as="geometry">
            <mxPoint x="793.75" y="5000" as="sourcePoint" />
            <mxPoint x="156.25" y="5000" as="targetPoint" />
          </mxGeometry>
        </mxCell>
        <mxCell id="ir6YCfh4k-mO9yrdAhlO-256" value="" style="endArrow=classic;html=1;exitX=-0.2;exitY=0.017;exitDx=0;exitDy=0;exitPerimeter=0;entryX=1.05;entryY=0.017;entryDx=0;entryDy=0;entryPerimeter=0;" edge="1" parent="1">
          <mxGeometry width="50" height="50" relative="1" as="geometry">
            <mxPoint x="793.75" y="5120" as="sourcePoint" />
            <mxPoint x="156.25" y="5120" as="targetPoint" />
          </mxGeometry>
        </mxCell>
        <mxCell id="ir6YCfh4k-mO9yrdAhlO-257" value="" style="endArrow=classic;html=1;exitX=-0.2;exitY=0.017;exitDx=0;exitDy=0;exitPerimeter=0;entryX=1.05;entryY=0.017;entryDx=0;entryDy=0;entryPerimeter=0;" edge="1" parent="1">
          <mxGeometry width="50" height="50" relative="1" as="geometry">
            <mxPoint x="792.5" y="5230" as="sourcePoint" />
            <mxPoint x="155" y="5230" as="targetPoint" />
          </mxGeometry>
        </mxCell>
        <mxCell id="ir6YCfh4k-mO9yrdAhlO-258" value="" style="endArrow=classic;html=1;exitX=-0.2;exitY=0.017;exitDx=0;exitDy=0;exitPerimeter=0;entryX=1.05;entryY=0.017;entryDx=0;entryDy=0;entryPerimeter=0;" edge="1" parent="1">
          <mxGeometry width="50" height="50" relative="1" as="geometry">
            <mxPoint x="793.75" y="5370" as="sourcePoint" />
            <mxPoint x="156.25" y="5370" as="targetPoint" />
          </mxGeometry>
        </mxCell>
        <mxCell id="ir6YCfh4k-mO9yrdAhlO-262" value="Check" style="rounded=1;whiteSpace=wrap;html=1;labelBackgroundColor=#ffffff;" vertex="1" parent="1">
          <mxGeometry x="850" y="5430" width="60" height="30" as="geometry" />
        </mxCell>
        <mxCell id="ir6YCfh4k-mO9yrdAhlO-263" value="" style="endArrow=classic;html=1;entryX=0.5;entryY=0;entryDx=0;entryDy=0;" edge="1" parent="1">
          <mxGeometry width="50" height="50" relative="1" as="geometry">
            <mxPoint x="805" y="5410" as="sourcePoint" />
            <mxPoint x="884" y="5430" as="targetPoint" />
            <Array as="points">
              <mxPoint x="820" y="5410" />
              <mxPoint x="850" y="5410" />
              <mxPoint x="884" y="5410" />
            </Array>
          </mxGeometry>
        </mxCell>
        <mxCell id="ir6YCfh4k-mO9yrdAhlO-264" value="" style="endArrow=classic;html=1;exitX=0.517;exitY=1.117;exitDx=0;exitDy=0;exitPerimeter=0;" edge="1" parent="1">
          <mxGeometry width="50" height="50" relative="1" as="geometry">
            <mxPoint x="881.02" y="5460" as="sourcePoint" />
            <mxPoint x="805" y="5476" as="targetPoint" />
            <Array as="points">
              <mxPoint x="881" y="5476.49" />
              <mxPoint x="850" y="5476" />
            </Array>
          </mxGeometry>
        </mxCell>
        <mxCell id="ir6YCfh4k-mO9yrdAhlO-265" value="Check" style="rounded=1;whiteSpace=wrap;html=1;labelBackgroundColor=#ffffff;" vertex="1" parent="1">
          <mxGeometry x="850" y="5580" width="60" height="30" as="geometry" />
        </mxCell>
        <mxCell id="ir6YCfh4k-mO9yrdAhlO-266" value="" style="endArrow=classic;html=1;entryX=0.5;entryY=0;entryDx=0;entryDy=0;" edge="1" parent="1">
          <mxGeometry width="50" height="50" relative="1" as="geometry">
            <mxPoint x="805" y="5560" as="sourcePoint" />
            <mxPoint x="884" y="5580" as="targetPoint" />
            <Array as="points">
              <mxPoint x="820" y="5560" />
              <mxPoint x="850" y="5560" />
              <mxPoint x="884" y="5560" />
            </Array>
          </mxGeometry>
        </mxCell>
        <mxCell id="ir6YCfh4k-mO9yrdAhlO-267" value="" style="endArrow=classic;html=1;exitX=0.517;exitY=1.117;exitDx=0;exitDy=0;exitPerimeter=0;" edge="1" parent="1">
          <mxGeometry width="50" height="50" relative="1" as="geometry">
            <mxPoint x="881.02" y="5610" as="sourcePoint" />
            <mxPoint x="805" y="5626" as="targetPoint" />
            <Array as="points">
              <mxPoint x="881" y="5626.49" />
              <mxPoint x="850" y="5626" />
            </Array>
          </mxGeometry>
        </mxCell>
        <mxCell id="ir6YCfh4k-mO9yrdAhlO-268" value="Check" style="rounded=1;whiteSpace=wrap;html=1;labelBackgroundColor=#ffffff;" vertex="1" parent="1">
          <mxGeometry x="850" y="5750" width="60" height="30" as="geometry" />
        </mxCell>
        <mxCell id="ir6YCfh4k-mO9yrdAhlO-269" value="" style="endArrow=classic;html=1;entryX=0.5;entryY=0;entryDx=0;entryDy=0;" edge="1" parent="1">
          <mxGeometry width="50" height="50" relative="1" as="geometry">
            <mxPoint x="805" y="5730" as="sourcePoint" />
            <mxPoint x="884" y="5750" as="targetPoint" />
            <Array as="points">
              <mxPoint x="820" y="5730" />
              <mxPoint x="850" y="5730" />
              <mxPoint x="884" y="5730" />
            </Array>
          </mxGeometry>
        </mxCell>
        <mxCell id="ir6YCfh4k-mO9yrdAhlO-270" value="" style="endArrow=classic;html=1;exitX=0.517;exitY=1.117;exitDx=0;exitDy=0;exitPerimeter=0;" edge="1" parent="1">
          <mxGeometry width="50" height="50" relative="1" as="geometry">
            <mxPoint x="881.02" y="5780" as="sourcePoint" />
            <mxPoint x="805" y="5796" as="targetPoint" />
            <Array as="points">
              <mxPoint x="881" y="5796.49" />
              <mxPoint x="850" y="5796" />
            </Array>
          </mxGeometry>
        </mxCell>
        <mxCell id="ir6YCfh4k-mO9yrdAhlO-271" value="" style="endArrow=classic;html=1;exitX=-0.2;exitY=0.017;exitDx=0;exitDy=0;exitPerimeter=0;entryX=1.05;entryY=0.017;entryDx=0;entryDy=0;entryPerimeter=0;" edge="1" parent="1">
          <mxGeometry width="50" height="50" relative="1" as="geometry">
            <mxPoint x="793.75" y="5490" as="sourcePoint" />
            <mxPoint x="156.25" y="5490" as="targetPoint" />
          </mxGeometry>
        </mxCell>
        <mxCell id="ir6YCfh4k-mO9yrdAhlO-272" value="" style="endArrow=classic;html=1;exitX=-0.2;exitY=0.017;exitDx=0;exitDy=0;exitPerimeter=0;entryX=1.05;entryY=0.017;entryDx=0;entryDy=0;entryPerimeter=0;" edge="1" parent="1">
          <mxGeometry width="50" height="50" relative="1" as="geometry">
            <mxPoint x="793.75" y="5640" as="sourcePoint" />
            <mxPoint x="156.25" y="5640" as="targetPoint" />
          </mxGeometry>
        </mxCell>
        <mxCell id="ir6YCfh4k-mO9yrdAhlO-273" value="" style="endArrow=classic;html=1;exitX=-0.2;exitY=0.017;exitDx=0;exitDy=0;exitPerimeter=0;entryX=1.05;entryY=0.017;entryDx=0;entryDy=0;entryPerimeter=0;" edge="1" parent="1">
          <mxGeometry width="50" height="50" relative="1" as="geometry">
            <mxPoint x="793.75" y="5810" as="sourcePoint" />
            <mxPoint x="156.25" y="5810" as="targetPoint" />
          </mxGeometry>
        </mxCell>
        <mxCell id="ir6YCfh4k-mO9yrdAhlO-274" value="Check" style="rounded=1;whiteSpace=wrap;html=1;labelBackgroundColor=#ffffff;" vertex="1" parent="1">
          <mxGeometry x="850" y="5940" width="60" height="30" as="geometry" />
        </mxCell>
        <mxCell id="ir6YCfh4k-mO9yrdAhlO-275" value="" style="endArrow=classic;html=1;entryX=0.5;entryY=0;entryDx=0;entryDy=0;" edge="1" parent="1">
          <mxGeometry width="50" height="50" relative="1" as="geometry">
            <mxPoint x="805" y="5920" as="sourcePoint" />
            <mxPoint x="884" y="5940" as="targetPoint" />
            <Array as="points">
              <mxPoint x="820" y="5920" />
              <mxPoint x="850" y="5920" />
              <mxPoint x="884" y="5920" />
            </Array>
          </mxGeometry>
        </mxCell>
        <mxCell id="ir6YCfh4k-mO9yrdAhlO-276" value="" style="endArrow=classic;html=1;exitX=0.517;exitY=1.117;exitDx=0;exitDy=0;exitPerimeter=0;" edge="1" parent="1">
          <mxGeometry width="50" height="50" relative="1" as="geometry">
            <mxPoint x="881.02" y="5970" as="sourcePoint" />
            <mxPoint x="805" y="5986" as="targetPoint" />
            <Array as="points">
              <mxPoint x="881" y="5986.49" />
              <mxPoint x="850" y="5986" />
            </Array>
          </mxGeometry>
        </mxCell>
        <mxCell id="ir6YCfh4k-mO9yrdAhlO-277" value="Check" style="rounded=1;whiteSpace=wrap;html=1;labelBackgroundColor=#ffffff;" vertex="1" parent="1">
          <mxGeometry x="850" y="6070" width="60" height="30" as="geometry" />
        </mxCell>
        <mxCell id="ir6YCfh4k-mO9yrdAhlO-278" value="" style="endArrow=classic;html=1;entryX=0.5;entryY=0;entryDx=0;entryDy=0;" edge="1" parent="1">
          <mxGeometry width="50" height="50" relative="1" as="geometry">
            <mxPoint x="805" y="6050" as="sourcePoint" />
            <mxPoint x="884" y="6070" as="targetPoint" />
            <Array as="points">
              <mxPoint x="820" y="6050" />
              <mxPoint x="850" y="6050" />
              <mxPoint x="884" y="6050" />
            </Array>
          </mxGeometry>
        </mxCell>
        <mxCell id="ir6YCfh4k-mO9yrdAhlO-279" value="" style="endArrow=classic;html=1;exitX=0.517;exitY=1.117;exitDx=0;exitDy=0;exitPerimeter=0;" edge="1" parent="1">
          <mxGeometry width="50" height="50" relative="1" as="geometry">
            <mxPoint x="881.02" y="6100" as="sourcePoint" />
            <mxPoint x="805" y="6116" as="targetPoint" />
            <Array as="points">
              <mxPoint x="881" y="6116.49" />
              <mxPoint x="850" y="6116" />
            </Array>
          </mxGeometry>
        </mxCell>
        <mxCell id="ir6YCfh4k-mO9yrdAhlO-280" value="Check" style="rounded=1;whiteSpace=wrap;html=1;labelBackgroundColor=#ffffff;" vertex="1" parent="1">
          <mxGeometry x="850" y="6220" width="60" height="30" as="geometry" />
        </mxCell>
        <mxCell id="ir6YCfh4k-mO9yrdAhlO-281" value="" style="endArrow=classic;html=1;entryX=0.5;entryY=0;entryDx=0;entryDy=0;" edge="1" parent="1">
          <mxGeometry width="50" height="50" relative="1" as="geometry">
            <mxPoint x="805" y="6200" as="sourcePoint" />
            <mxPoint x="884" y="6220" as="targetPoint" />
            <Array as="points">
              <mxPoint x="820" y="6200" />
              <mxPoint x="850" y="6200" />
              <mxPoint x="884" y="6200" />
            </Array>
          </mxGeometry>
        </mxCell>
        <mxCell id="ir6YCfh4k-mO9yrdAhlO-282" value="" style="endArrow=classic;html=1;exitX=0.517;exitY=1.117;exitDx=0;exitDy=0;exitPerimeter=0;" edge="1" parent="1">
          <mxGeometry width="50" height="50" relative="1" as="geometry">
            <mxPoint x="881.02" y="6250" as="sourcePoint" />
            <mxPoint x="805" y="6266" as="targetPoint" />
            <Array as="points">
              <mxPoint x="881" y="6266.49" />
              <mxPoint x="850" y="6266" />
            </Array>
          </mxGeometry>
        </mxCell>
        <mxCell id="ir6YCfh4k-mO9yrdAhlO-283" value="Check" style="rounded=1;whiteSpace=wrap;html=1;labelBackgroundColor=#ffffff;" vertex="1" parent="1">
          <mxGeometry x="850" y="6390" width="60" height="30" as="geometry" />
        </mxCell>
        <mxCell id="ir6YCfh4k-mO9yrdAhlO-284" value="" style="endArrow=classic;html=1;entryX=0.5;entryY=0;entryDx=0;entryDy=0;" edge="1" parent="1">
          <mxGeometry width="50" height="50" relative="1" as="geometry">
            <mxPoint x="805" y="6370" as="sourcePoint" />
            <mxPoint x="884" y="6390" as="targetPoint" />
            <Array as="points">
              <mxPoint x="820" y="6370" />
              <mxPoint x="850" y="6370" />
              <mxPoint x="884" y="6370" />
            </Array>
          </mxGeometry>
        </mxCell>
        <mxCell id="ir6YCfh4k-mO9yrdAhlO-285" value="" style="endArrow=classic;html=1;exitX=0.517;exitY=1.117;exitDx=0;exitDy=0;exitPerimeter=0;" edge="1" parent="1">
          <mxGeometry width="50" height="50" relative="1" as="geometry">
            <mxPoint x="881.02" y="6420" as="sourcePoint" />
            <mxPoint x="805" y="6436" as="targetPoint" />
            <Array as="points">
              <mxPoint x="881" y="6436.49" />
              <mxPoint x="850" y="6436" />
            </Array>
          </mxGeometry>
        </mxCell>
        <mxCell id="ir6YCfh4k-mO9yrdAhlO-286" value="" style="endArrow=classic;html=1;exitX=-0.2;exitY=0.017;exitDx=0;exitDy=0;exitPerimeter=0;entryX=1.05;entryY=0.017;entryDx=0;entryDy=0;entryPerimeter=0;" edge="1" parent="1">
          <mxGeometry width="50" height="50" relative="1" as="geometry">
            <mxPoint x="793.75" y="6000" as="sourcePoint" />
            <mxPoint x="156.25" y="6000" as="targetPoint" />
          </mxGeometry>
        </mxCell>
        <mxCell id="ir6YCfh4k-mO9yrdAhlO-287" value="" style="endArrow=classic;html=1;exitX=-0.2;exitY=0.017;exitDx=0;exitDy=0;exitPerimeter=0;entryX=1.05;entryY=0.017;entryDx=0;entryDy=0;entryPerimeter=0;" edge="1" parent="1">
          <mxGeometry width="50" height="50" relative="1" as="geometry">
            <mxPoint x="793.75" y="6130" as="sourcePoint" />
            <mxPoint x="156.25" y="6130" as="targetPoint" />
          </mxGeometry>
        </mxCell>
        <mxCell id="ir6YCfh4k-mO9yrdAhlO-288" value="" style="endArrow=classic;html=1;exitX=-0.2;exitY=0.017;exitDx=0;exitDy=0;exitPerimeter=0;entryX=1.05;entryY=0.017;entryDx=0;entryDy=0;entryPerimeter=0;" edge="1" parent="1">
          <mxGeometry width="50" height="50" relative="1" as="geometry">
            <mxPoint x="793.75" y="6280" as="sourcePoint" />
            <mxPoint x="156.25" y="6280" as="targetPoint" />
          </mxGeometry>
        </mxCell>
        <mxCell id="ir6YCfh4k-mO9yrdAhlO-289" value="" style="endArrow=classic;html=1;exitX=-0.2;exitY=0.017;exitDx=0;exitDy=0;exitPerimeter=0;entryX=1.05;entryY=0.017;entryDx=0;entryDy=0;entryPerimeter=0;" edge="1" parent="1">
          <mxGeometry width="50" height="50" relative="1" as="geometry">
            <mxPoint x="793.75" y="6450" as="sourcePoint" />
            <mxPoint x="156.25" y="6450" as="targetPoint" />
          </mxGeometry>
        </mxCell>
        <mxCell id="ir6YCfh4k-mO9yrdAhlO-290" value="Check" style="rounded=1;whiteSpace=wrap;html=1;labelBackgroundColor=#ffffff;" vertex="1" parent="1">
          <mxGeometry x="850" y="6583.51" width="60" height="30" as="geometry" />
        </mxCell>
        <mxCell id="ir6YCfh4k-mO9yrdAhlO-291" value="" style="endArrow=classic;html=1;entryX=0.5;entryY=0;entryDx=0;entryDy=0;" edge="1" parent="1">
          <mxGeometry width="50" height="50" relative="1" as="geometry">
            <mxPoint x="805" y="6563.51" as="sourcePoint" />
            <mxPoint x="884" y="6583.51" as="targetPoint" />
            <Array as="points">
              <mxPoint x="820" y="6563.51" />
              <mxPoint x="850" y="6563.51" />
              <mxPoint x="884" y="6563.51" />
            </Array>
          </mxGeometry>
        </mxCell>
        <mxCell id="ir6YCfh4k-mO9yrdAhlO-292" value="" style="endArrow=classic;html=1;exitX=0.517;exitY=1.117;exitDx=0;exitDy=0;exitPerimeter=0;" edge="1" parent="1">
          <mxGeometry width="50" height="50" relative="1" as="geometry">
            <mxPoint x="881.02" y="6613.51" as="sourcePoint" />
            <mxPoint x="805" y="6629.51" as="targetPoint" />
            <Array as="points">
              <mxPoint x="881" y="6630" />
              <mxPoint x="850" y="6629.51" />
            </Array>
          </mxGeometry>
        </mxCell>
        <mxCell id="ir6YCfh4k-mO9yrdAhlO-293" value="Check" style="rounded=1;whiteSpace=wrap;html=1;labelBackgroundColor=#ffffff;" vertex="1" parent="1">
          <mxGeometry x="850" y="6713.51" width="60" height="30" as="geometry" />
        </mxCell>
        <mxCell id="ir6YCfh4k-mO9yrdAhlO-294" value="" style="endArrow=classic;html=1;entryX=0.5;entryY=0;entryDx=0;entryDy=0;" edge="1" parent="1">
          <mxGeometry width="50" height="50" relative="1" as="geometry">
            <mxPoint x="805" y="6693.51" as="sourcePoint" />
            <mxPoint x="884" y="6713.51" as="targetPoint" />
            <Array as="points">
              <mxPoint x="820" y="6693.51" />
              <mxPoint x="850" y="6693.51" />
              <mxPoint x="884" y="6693.51" />
            </Array>
          </mxGeometry>
        </mxCell>
        <mxCell id="ir6YCfh4k-mO9yrdAhlO-295" value="" style="endArrow=classic;html=1;exitX=0.517;exitY=1.117;exitDx=0;exitDy=0;exitPerimeter=0;" edge="1" parent="1">
          <mxGeometry width="50" height="50" relative="1" as="geometry">
            <mxPoint x="881.02" y="6743.51" as="sourcePoint" />
            <mxPoint x="805" y="6759.51" as="targetPoint" />
            <Array as="points">
              <mxPoint x="881" y="6760" />
              <mxPoint x="850" y="6759.51" />
            </Array>
          </mxGeometry>
        </mxCell>
        <mxCell id="ir6YCfh4k-mO9yrdAhlO-296" value="Check" style="rounded=1;whiteSpace=wrap;html=1;labelBackgroundColor=#ffffff;" vertex="1" parent="1">
          <mxGeometry x="850" y="6863.51" width="60" height="30" as="geometry" />
        </mxCell>
        <mxCell id="ir6YCfh4k-mO9yrdAhlO-297" value="" style="endArrow=classic;html=1;entryX=0.5;entryY=0;entryDx=0;entryDy=0;" edge="1" parent="1">
          <mxGeometry width="50" height="50" relative="1" as="geometry">
            <mxPoint x="805" y="6843.51" as="sourcePoint" />
            <mxPoint x="884" y="6863.51" as="targetPoint" />
            <Array as="points">
              <mxPoint x="820" y="6843.51" />
              <mxPoint x="850" y="6843.51" />
              <mxPoint x="884" y="6843.51" />
            </Array>
          </mxGeometry>
        </mxCell>
        <mxCell id="ir6YCfh4k-mO9yrdAhlO-298" value="" style="endArrow=classic;html=1;exitX=0.517;exitY=1.117;exitDx=0;exitDy=0;exitPerimeter=0;" edge="1" parent="1">
          <mxGeometry width="50" height="50" relative="1" as="geometry">
            <mxPoint x="881.02" y="6893.51" as="sourcePoint" />
            <mxPoint x="805" y="6909.51" as="targetPoint" />
            <Array as="points">
              <mxPoint x="881" y="6910" />
              <mxPoint x="850" y="6909.51" />
            </Array>
          </mxGeometry>
        </mxCell>
        <mxCell id="ir6YCfh4k-mO9yrdAhlO-299" value="Check" style="rounded=1;whiteSpace=wrap;html=1;labelBackgroundColor=#ffffff;" vertex="1" parent="1">
          <mxGeometry x="850" y="7033.51" width="60" height="30" as="geometry" />
        </mxCell>
        <mxCell id="ir6YCfh4k-mO9yrdAhlO-300" value="" style="endArrow=classic;html=1;entryX=0.5;entryY=0;entryDx=0;entryDy=0;" edge="1" parent="1">
          <mxGeometry width="50" height="50" relative="1" as="geometry">
            <mxPoint x="805" y="7013.51" as="sourcePoint" />
            <mxPoint x="884" y="7033.51" as="targetPoint" />
            <Array as="points">
              <mxPoint x="820" y="7013.51" />
              <mxPoint x="850" y="7013.51" />
              <mxPoint x="884" y="7013.51" />
            </Array>
          </mxGeometry>
        </mxCell>
        <mxCell id="ir6YCfh4k-mO9yrdAhlO-301" value="" style="endArrow=classic;html=1;exitX=0.517;exitY=1.117;exitDx=0;exitDy=0;exitPerimeter=0;" edge="1" parent="1">
          <mxGeometry width="50" height="50" relative="1" as="geometry">
            <mxPoint x="881.02" y="7063.51" as="sourcePoint" />
            <mxPoint x="805" y="7079.51" as="targetPoint" />
            <Array as="points">
              <mxPoint x="881" y="7080" />
              <mxPoint x="850" y="7079.51" />
            </Array>
          </mxGeometry>
        </mxCell>
        <mxCell id="ir6YCfh4k-mO9yrdAhlO-302" value="" style="endArrow=classic;html=1;exitX=-0.2;exitY=0.017;exitDx=0;exitDy=0;exitPerimeter=0;entryX=1.05;entryY=0.017;entryDx=0;entryDy=0;entryPerimeter=0;" edge="1" parent="1">
          <mxGeometry width="50" height="50" relative="1" as="geometry">
            <mxPoint x="793.75" y="6640" as="sourcePoint" />
            <mxPoint x="156.25" y="6640" as="targetPoint" />
          </mxGeometry>
        </mxCell>
        <mxCell id="ir6YCfh4k-mO9yrdAhlO-303" value="" style="endArrow=classic;html=1;exitX=-0.2;exitY=0.017;exitDx=0;exitDy=0;exitPerimeter=0;entryX=1.05;entryY=0.017;entryDx=0;entryDy=0;entryPerimeter=0;" edge="1" parent="1">
          <mxGeometry width="50" height="50" relative="1" as="geometry">
            <mxPoint x="793.75" y="6770" as="sourcePoint" />
            <mxPoint x="156.25" y="6770" as="targetPoint" />
          </mxGeometry>
        </mxCell>
        <mxCell id="ir6YCfh4k-mO9yrdAhlO-304" value="" style="endArrow=classic;html=1;exitX=-0.2;exitY=0.017;exitDx=0;exitDy=0;exitPerimeter=0;entryX=1.05;entryY=0.017;entryDx=0;entryDy=0;entryPerimeter=0;" edge="1" parent="1">
          <mxGeometry width="50" height="50" relative="1" as="geometry">
            <mxPoint x="793.75" y="6920" as="sourcePoint" />
            <mxPoint x="156.25" y="6920" as="targetPoint" />
          </mxGeometry>
        </mxCell>
        <mxCell id="ir6YCfh4k-mO9yrdAhlO-305" value="" style="endArrow=classic;html=1;exitX=-0.2;exitY=0.017;exitDx=0;exitDy=0;exitPerimeter=0;entryX=1.05;entryY=0.017;entryDx=0;entryDy=0;entryPerimeter=0;" edge="1" parent="1">
          <mxGeometry width="50" height="50" relative="1" as="geometry">
            <mxPoint x="793.75" y="7090" as="sourcePoint" />
            <mxPoint x="156.25" y="7090" as="targetPoint" />
          </mxGeometry>
        </mxCell>
        <mxCell id="ir6YCfh4k-mO9yrdAhlO-306" value="Check" style="rounded=1;whiteSpace=wrap;html=1;labelBackgroundColor=#ffffff;" vertex="1" parent="1">
          <mxGeometry x="850" y="7220" width="60" height="30" as="geometry" />
        </mxCell>
        <mxCell id="ir6YCfh4k-mO9yrdAhlO-307" value="" style="endArrow=classic;html=1;entryX=0.5;entryY=0;entryDx=0;entryDy=0;" edge="1" parent="1">
          <mxGeometry width="50" height="50" relative="1" as="geometry">
            <mxPoint x="805" y="7200" as="sourcePoint" />
            <mxPoint x="884" y="7220" as="targetPoint" />
            <Array as="points">
              <mxPoint x="820" y="7200" />
              <mxPoint x="850" y="7200" />
              <mxPoint x="884" y="7200" />
            </Array>
          </mxGeometry>
        </mxCell>
        <mxCell id="ir6YCfh4k-mO9yrdAhlO-308" value="" style="endArrow=classic;html=1;exitX=0.517;exitY=1.117;exitDx=0;exitDy=0;exitPerimeter=0;" edge="1" parent="1">
          <mxGeometry width="50" height="50" relative="1" as="geometry">
            <mxPoint x="881.02" y="7250" as="sourcePoint" />
            <mxPoint x="805" y="7266" as="targetPoint" />
            <Array as="points">
              <mxPoint x="881" y="7266.49" />
              <mxPoint x="850" y="7266" />
            </Array>
          </mxGeometry>
        </mxCell>
        <mxCell id="ir6YCfh4k-mO9yrdAhlO-309" value="Check" style="rounded=1;whiteSpace=wrap;html=1;labelBackgroundColor=#ffffff;" vertex="1" parent="1">
          <mxGeometry x="850" y="7350" width="60" height="30" as="geometry" />
        </mxCell>
        <mxCell id="ir6YCfh4k-mO9yrdAhlO-310" value="" style="endArrow=classic;html=1;entryX=0.5;entryY=0;entryDx=0;entryDy=0;" edge="1" parent="1">
          <mxGeometry width="50" height="50" relative="1" as="geometry">
            <mxPoint x="805" y="7330" as="sourcePoint" />
            <mxPoint x="884" y="7350" as="targetPoint" />
            <Array as="points">
              <mxPoint x="820" y="7330" />
              <mxPoint x="850" y="7330" />
              <mxPoint x="884" y="7330" />
            </Array>
          </mxGeometry>
        </mxCell>
        <mxCell id="ir6YCfh4k-mO9yrdAhlO-311" value="" style="endArrow=classic;html=1;exitX=0.517;exitY=1.117;exitDx=0;exitDy=0;exitPerimeter=0;" edge="1" parent="1">
          <mxGeometry width="50" height="50" relative="1" as="geometry">
            <mxPoint x="881.02" y="7380" as="sourcePoint" />
            <mxPoint x="805" y="7396" as="targetPoint" />
            <Array as="points">
              <mxPoint x="881" y="7396.49" />
              <mxPoint x="850" y="7396" />
            </Array>
          </mxGeometry>
        </mxCell>
        <mxCell id="ir6YCfh4k-mO9yrdAhlO-312" value="Check" style="rounded=1;whiteSpace=wrap;html=1;labelBackgroundColor=#ffffff;" vertex="1" parent="1">
          <mxGeometry x="850" y="7500" width="60" height="30" as="geometry" />
        </mxCell>
        <mxCell id="ir6YCfh4k-mO9yrdAhlO-313" value="" style="endArrow=classic;html=1;entryX=0.5;entryY=0;entryDx=0;entryDy=0;" edge="1" parent="1">
          <mxGeometry width="50" height="50" relative="1" as="geometry">
            <mxPoint x="805" y="7480" as="sourcePoint" />
            <mxPoint x="884" y="7500" as="targetPoint" />
            <Array as="points">
              <mxPoint x="820" y="7480" />
              <mxPoint x="850" y="7480" />
              <mxPoint x="884" y="7480" />
            </Array>
          </mxGeometry>
        </mxCell>
        <mxCell id="ir6YCfh4k-mO9yrdAhlO-314" value="" style="endArrow=classic;html=1;exitX=0.517;exitY=1.117;exitDx=0;exitDy=0;exitPerimeter=0;" edge="1" parent="1">
          <mxGeometry width="50" height="50" relative="1" as="geometry">
            <mxPoint x="881.02" y="7530" as="sourcePoint" />
            <mxPoint x="805" y="7546" as="targetPoint" />
            <Array as="points">
              <mxPoint x="881" y="7546.49" />
              <mxPoint x="850" y="7546" />
            </Array>
          </mxGeometry>
        </mxCell>
        <mxCell id="ir6YCfh4k-mO9yrdAhlO-315" value="Check" style="rounded=1;whiteSpace=wrap;html=1;labelBackgroundColor=#ffffff;" vertex="1" parent="1">
          <mxGeometry x="850" y="7670" width="60" height="30" as="geometry" />
        </mxCell>
        <mxCell id="ir6YCfh4k-mO9yrdAhlO-316" value="" style="endArrow=classic;html=1;entryX=0.5;entryY=0;entryDx=0;entryDy=0;" edge="1" parent="1">
          <mxGeometry width="50" height="50" relative="1" as="geometry">
            <mxPoint x="805" y="7650" as="sourcePoint" />
            <mxPoint x="884" y="7670" as="targetPoint" />
            <Array as="points">
              <mxPoint x="820" y="7650" />
              <mxPoint x="850" y="7650" />
              <mxPoint x="884" y="7650" />
            </Array>
          </mxGeometry>
        </mxCell>
        <mxCell id="ir6YCfh4k-mO9yrdAhlO-317" value="" style="endArrow=classic;html=1;exitX=0.517;exitY=1.117;exitDx=0;exitDy=0;exitPerimeter=0;" edge="1" parent="1">
          <mxGeometry width="50" height="50" relative="1" as="geometry">
            <mxPoint x="881.02" y="7700" as="sourcePoint" />
            <mxPoint x="805" y="7716" as="targetPoint" />
            <Array as="points">
              <mxPoint x="881" y="7716.49" />
              <mxPoint x="850" y="7716" />
            </Array>
          </mxGeometry>
        </mxCell>
        <mxCell id="ir6YCfh4k-mO9yrdAhlO-330" value="" style="endArrow=classic;html=1;exitX=-0.2;exitY=0.017;exitDx=0;exitDy=0;exitPerimeter=0;entryX=1.05;entryY=0.017;entryDx=0;entryDy=0;entryPerimeter=0;" edge="1" parent="1">
          <mxGeometry width="50" height="50" relative="1" as="geometry">
            <mxPoint x="793.75" y="7280" as="sourcePoint" />
            <mxPoint x="156.25" y="7280" as="targetPoint" />
          </mxGeometry>
        </mxCell>
        <mxCell id="ir6YCfh4k-mO9yrdAhlO-331" value="" style="endArrow=classic;html=1;exitX=-0.2;exitY=0.017;exitDx=0;exitDy=0;exitPerimeter=0;entryX=1.05;entryY=0.017;entryDx=0;entryDy=0;entryPerimeter=0;" edge="1" parent="1">
          <mxGeometry width="50" height="50" relative="1" as="geometry">
            <mxPoint x="793.75" y="7410" as="sourcePoint" />
            <mxPoint x="156.25" y="7410" as="targetPoint" />
          </mxGeometry>
        </mxCell>
        <mxCell id="ir6YCfh4k-mO9yrdAhlO-332" value="" style="endArrow=classic;html=1;exitX=-0.2;exitY=0.017;exitDx=0;exitDy=0;exitPerimeter=0;entryX=1.05;entryY=0.017;entryDx=0;entryDy=0;entryPerimeter=0;" edge="1" parent="1">
          <mxGeometry width="50" height="50" relative="1" as="geometry">
            <mxPoint x="793.75" y="7560" as="sourcePoint" />
            <mxPoint x="156.25" y="7560" as="targetPoint" />
          </mxGeometry>
        </mxCell>
        <mxCell id="ir6YCfh4k-mO9yrdAhlO-333" value="" style="endArrow=classic;html=1;exitX=-0.2;exitY=0.017;exitDx=0;exitDy=0;exitPerimeter=0;entryX=1.05;entryY=0.017;entryDx=0;entryDy=0;entryPerimeter=0;" edge="1" parent="1">
          <mxGeometry width="50" height="50" relative="1" as="geometry">
            <mxPoint x="793.75" y="7730" as="sourcePoint" />
            <mxPoint x="156.25" y="7730" as="targetPoint" />
          </mxGeometry>
        </mxCell>
        <mxCell id="ir6YCfh4k-mO9yrdAhlO-334" value="Check" style="rounded=1;whiteSpace=wrap;html=1;labelBackgroundColor=#ffffff;" vertex="1" parent="1">
          <mxGeometry x="850" y="7863.51" width="60" height="30" as="geometry" />
        </mxCell>
        <mxCell id="ir6YCfh4k-mO9yrdAhlO-335" value="" style="endArrow=classic;html=1;entryX=0.5;entryY=0;entryDx=0;entryDy=0;" edge="1" parent="1">
          <mxGeometry width="50" height="50" relative="1" as="geometry">
            <mxPoint x="805" y="7843.51" as="sourcePoint" />
            <mxPoint x="884" y="7863.51" as="targetPoint" />
            <Array as="points">
              <mxPoint x="820" y="7843.51" />
              <mxPoint x="850" y="7843.51" />
              <mxPoint x="884" y="7843.51" />
            </Array>
          </mxGeometry>
        </mxCell>
        <mxCell id="ir6YCfh4k-mO9yrdAhlO-336" value="" style="endArrow=classic;html=1;exitX=0.517;exitY=1.117;exitDx=0;exitDy=0;exitPerimeter=0;" edge="1" parent="1">
          <mxGeometry width="50" height="50" relative="1" as="geometry">
            <mxPoint x="881.02" y="7893.51" as="sourcePoint" />
            <mxPoint x="805" y="7909.51" as="targetPoint" />
            <Array as="points">
              <mxPoint x="881" y="7910" />
              <mxPoint x="850" y="7909.51" />
            </Array>
          </mxGeometry>
        </mxCell>
        <mxCell id="ir6YCfh4k-mO9yrdAhlO-337" value="Check" style="rounded=1;whiteSpace=wrap;html=1;labelBackgroundColor=#ffffff;" vertex="1" parent="1">
          <mxGeometry x="850" y="7993.51" width="60" height="30" as="geometry" />
        </mxCell>
        <mxCell id="ir6YCfh4k-mO9yrdAhlO-338" value="" style="endArrow=classic;html=1;entryX=0.5;entryY=0;entryDx=0;entryDy=0;" edge="1" parent="1">
          <mxGeometry width="50" height="50" relative="1" as="geometry">
            <mxPoint x="805" y="7973.51" as="sourcePoint" />
            <mxPoint x="884" y="7993.51" as="targetPoint" />
            <Array as="points">
              <mxPoint x="820" y="7973.51" />
              <mxPoint x="850" y="7973.51" />
              <mxPoint x="884" y="7973.51" />
            </Array>
          </mxGeometry>
        </mxCell>
        <mxCell id="ir6YCfh4k-mO9yrdAhlO-339" value="" style="endArrow=classic;html=1;exitX=0.517;exitY=1.117;exitDx=0;exitDy=0;exitPerimeter=0;" edge="1" parent="1">
          <mxGeometry width="50" height="50" relative="1" as="geometry">
            <mxPoint x="881.02" y="8023.51" as="sourcePoint" />
            <mxPoint x="805" y="8039.51" as="targetPoint" />
            <Array as="points">
              <mxPoint x="881" y="8040" />
              <mxPoint x="850" y="8039.51" />
            </Array>
          </mxGeometry>
        </mxCell>
        <mxCell id="ir6YCfh4k-mO9yrdAhlO-340" value="Check" style="rounded=1;whiteSpace=wrap;html=1;labelBackgroundColor=#ffffff;" vertex="1" parent="1">
          <mxGeometry x="850" y="8143.51" width="60" height="30" as="geometry" />
        </mxCell>
        <mxCell id="ir6YCfh4k-mO9yrdAhlO-341" value="" style="endArrow=classic;html=1;entryX=0.5;entryY=0;entryDx=0;entryDy=0;" edge="1" parent="1">
          <mxGeometry width="50" height="50" relative="1" as="geometry">
            <mxPoint x="805" y="8123.51" as="sourcePoint" />
            <mxPoint x="884" y="8143.51" as="targetPoint" />
            <Array as="points">
              <mxPoint x="820" y="8123.51" />
              <mxPoint x="850" y="8123.51" />
              <mxPoint x="884" y="8123.51" />
            </Array>
          </mxGeometry>
        </mxCell>
        <mxCell id="ir6YCfh4k-mO9yrdAhlO-342" value="" style="endArrow=classic;html=1;exitX=0.517;exitY=1.117;exitDx=0;exitDy=0;exitPerimeter=0;" edge="1" parent="1">
          <mxGeometry width="50" height="50" relative="1" as="geometry">
            <mxPoint x="881.02" y="8173.51" as="sourcePoint" />
            <mxPoint x="805" y="8189.51" as="targetPoint" />
            <Array as="points">
              <mxPoint x="881" y="8190" />
              <mxPoint x="850" y="8189.51" />
            </Array>
          </mxGeometry>
        </mxCell>
        <mxCell id="ir6YCfh4k-mO9yrdAhlO-343" value="Check" style="rounded=1;whiteSpace=wrap;html=1;labelBackgroundColor=#ffffff;" vertex="1" parent="1">
          <mxGeometry x="850" y="8313.51" width="60" height="30" as="geometry" />
        </mxCell>
        <mxCell id="ir6YCfh4k-mO9yrdAhlO-344" value="" style="endArrow=classic;html=1;entryX=0.5;entryY=0;entryDx=0;entryDy=0;" edge="1" parent="1">
          <mxGeometry width="50" height="50" relative="1" as="geometry">
            <mxPoint x="805" y="8293.51" as="sourcePoint" />
            <mxPoint x="884" y="8313.51" as="targetPoint" />
            <Array as="points">
              <mxPoint x="820" y="8293.51" />
              <mxPoint x="850" y="8293.51" />
              <mxPoint x="884" y="8293.51" />
            </Array>
          </mxGeometry>
        </mxCell>
        <mxCell id="ir6YCfh4k-mO9yrdAhlO-345" value="" style="endArrow=classic;html=1;exitX=0.517;exitY=1.117;exitDx=0;exitDy=0;exitPerimeter=0;" edge="1" parent="1">
          <mxGeometry width="50" height="50" relative="1" as="geometry">
            <mxPoint x="881.02" y="8343.51" as="sourcePoint" />
            <mxPoint x="805" y="8359.51" as="targetPoint" />
            <Array as="points">
              <mxPoint x="881" y="8360" />
              <mxPoint x="850" y="8359.51" />
            </Array>
          </mxGeometry>
        </mxCell>
        <mxCell id="ir6YCfh4k-mO9yrdAhlO-346" value="" style="endArrow=classic;html=1;exitX=-0.2;exitY=0.017;exitDx=0;exitDy=0;exitPerimeter=0;entryX=1.05;entryY=0.017;entryDx=0;entryDy=0;entryPerimeter=0;" edge="1" parent="1">
          <mxGeometry width="50" height="50" relative="1" as="geometry">
            <mxPoint x="793.75" y="7920" as="sourcePoint" />
            <mxPoint x="156.25" y="7920" as="targetPoint" />
          </mxGeometry>
        </mxCell>
        <mxCell id="ir6YCfh4k-mO9yrdAhlO-347" value="" style="endArrow=classic;html=1;exitX=-0.2;exitY=0.017;exitDx=0;exitDy=0;exitPerimeter=0;entryX=1.05;entryY=0.017;entryDx=0;entryDy=0;entryPerimeter=0;" edge="1" parent="1">
          <mxGeometry width="50" height="50" relative="1" as="geometry">
            <mxPoint x="793.75" y="8050" as="sourcePoint" />
            <mxPoint x="156.25" y="8050" as="targetPoint" />
          </mxGeometry>
        </mxCell>
        <mxCell id="ir6YCfh4k-mO9yrdAhlO-348" value="" style="endArrow=classic;html=1;exitX=-0.2;exitY=0.017;exitDx=0;exitDy=0;exitPerimeter=0;entryX=1.05;entryY=0.017;entryDx=0;entryDy=0;entryPerimeter=0;" edge="1" parent="1">
          <mxGeometry width="50" height="50" relative="1" as="geometry">
            <mxPoint x="793.75" y="8200" as="sourcePoint" />
            <mxPoint x="156.25" y="8200" as="targetPoint" />
          </mxGeometry>
        </mxCell>
        <mxCell id="ir6YCfh4k-mO9yrdAhlO-349" value="" style="endArrow=classic;html=1;exitX=-0.2;exitY=0.017;exitDx=0;exitDy=0;exitPerimeter=0;entryX=1.05;entryY=0.017;entryDx=0;entryDy=0;entryPerimeter=0;" edge="1" parent="1">
          <mxGeometry width="50" height="50" relative="1" as="geometry">
            <mxPoint x="793.75" y="8370" as="sourcePoint" />
            <mxPoint x="156.25" y="8370" as="targetPoint" />
          </mxGeometry>
        </mxCell>
        <mxCell id="ir6YCfh4k-mO9yrdAhlO-351" value="Check" style="rounded=1;whiteSpace=wrap;html=1;labelBackgroundColor=#ffffff;" vertex="1" parent="1">
          <mxGeometry x="850" y="8505" width="60" height="30" as="geometry" />
        </mxCell>
        <mxCell id="ir6YCfh4k-mO9yrdAhlO-352" value="" style="endArrow=classic;html=1;entryX=0.5;entryY=0;entryDx=0;entryDy=0;" edge="1" parent="1">
          <mxGeometry width="50" height="50" relative="1" as="geometry">
            <mxPoint x="805" y="8485" as="sourcePoint" />
            <mxPoint x="884" y="8505" as="targetPoint" />
            <Array as="points">
              <mxPoint x="820" y="8485" />
              <mxPoint x="850" y="8485" />
              <mxPoint x="884" y="8485" />
            </Array>
          </mxGeometry>
        </mxCell>
        <mxCell id="ir6YCfh4k-mO9yrdAhlO-353" value="" style="endArrow=classic;html=1;exitX=0.517;exitY=1.117;exitDx=0;exitDy=0;exitPerimeter=0;" edge="1" parent="1">
          <mxGeometry width="50" height="50" relative="1" as="geometry">
            <mxPoint x="881.02" y="8535" as="sourcePoint" />
            <mxPoint x="805" y="8551" as="targetPoint" />
            <Array as="points">
              <mxPoint x="881" y="8551.49" />
              <mxPoint x="850" y="8551" />
            </Array>
          </mxGeometry>
        </mxCell>
        <mxCell id="ir6YCfh4k-mO9yrdAhlO-354" value="Check" style="rounded=1;whiteSpace=wrap;html=1;labelBackgroundColor=#ffffff;" vertex="1" parent="1">
          <mxGeometry x="850" y="8675" width="60" height="30" as="geometry" />
        </mxCell>
        <mxCell id="ir6YCfh4k-mO9yrdAhlO-355" value="" style="endArrow=classic;html=1;entryX=0.5;entryY=0;entryDx=0;entryDy=0;" edge="1" parent="1">
          <mxGeometry width="50" height="50" relative="1" as="geometry">
            <mxPoint x="805" y="8655" as="sourcePoint" />
            <mxPoint x="884" y="8675" as="targetPoint" />
            <Array as="points">
              <mxPoint x="820" y="8655" />
              <mxPoint x="850" y="8655" />
              <mxPoint x="884" y="8655" />
            </Array>
          </mxGeometry>
        </mxCell>
        <mxCell id="ir6YCfh4k-mO9yrdAhlO-356" value="" style="endArrow=classic;html=1;exitX=0.517;exitY=1.117;exitDx=0;exitDy=0;exitPerimeter=0;" edge="1" parent="1">
          <mxGeometry width="50" height="50" relative="1" as="geometry">
            <mxPoint x="881.02" y="8705" as="sourcePoint" />
            <mxPoint x="805" y="8721" as="targetPoint" />
            <Array as="points">
              <mxPoint x="881" y="8721.49" />
              <mxPoint x="850" y="8721" />
            </Array>
          </mxGeometry>
        </mxCell>
        <mxCell id="ir6YCfh4k-mO9yrdAhlO-357" value="Check" style="rounded=1;whiteSpace=wrap;html=1;labelBackgroundColor=#ffffff;" vertex="1" parent="1">
          <mxGeometry x="850" y="8868.51" width="60" height="30" as="geometry" />
        </mxCell>
        <mxCell id="ir6YCfh4k-mO9yrdAhlO-358" value="" style="endArrow=classic;html=1;entryX=0.5;entryY=0;entryDx=0;entryDy=0;" edge="1" parent="1">
          <mxGeometry width="50" height="50" relative="1" as="geometry">
            <mxPoint x="805" y="8848.51" as="sourcePoint" />
            <mxPoint x="884" y="8868.51" as="targetPoint" />
            <Array as="points">
              <mxPoint x="820" y="8848.51" />
              <mxPoint x="850" y="8848.51" />
              <mxPoint x="884" y="8848.51" />
            </Array>
          </mxGeometry>
        </mxCell>
        <mxCell id="ir6YCfh4k-mO9yrdAhlO-359" value="" style="endArrow=classic;html=1;exitX=0.517;exitY=1.117;exitDx=0;exitDy=0;exitPerimeter=0;" edge="1" parent="1">
          <mxGeometry width="50" height="50" relative="1" as="geometry">
            <mxPoint x="881.02" y="8898.51" as="sourcePoint" />
            <mxPoint x="805" y="8914.51" as="targetPoint" />
            <Array as="points">
              <mxPoint x="881" y="8915" />
              <mxPoint x="850" y="8914.51" />
            </Array>
          </mxGeometry>
        </mxCell>
        <mxCell id="ir6YCfh4k-mO9yrdAhlO-360" value="Check" style="rounded=1;whiteSpace=wrap;html=1;labelBackgroundColor=#ffffff;" vertex="1" parent="1">
          <mxGeometry x="850" y="8998.51" width="60" height="30" as="geometry" />
        </mxCell>
        <mxCell id="ir6YCfh4k-mO9yrdAhlO-361" value="" style="endArrow=classic;html=1;entryX=0.5;entryY=0;entryDx=0;entryDy=0;" edge="1" parent="1">
          <mxGeometry width="50" height="50" relative="1" as="geometry">
            <mxPoint x="805" y="8978.51" as="sourcePoint" />
            <mxPoint x="884" y="8998.51" as="targetPoint" />
            <Array as="points">
              <mxPoint x="820" y="8978.51" />
              <mxPoint x="850" y="8978.51" />
              <mxPoint x="884" y="8978.51" />
            </Array>
          </mxGeometry>
        </mxCell>
        <mxCell id="ir6YCfh4k-mO9yrdAhlO-362" value="" style="endArrow=classic;html=1;exitX=0.517;exitY=1.117;exitDx=0;exitDy=0;exitPerimeter=0;" edge="1" parent="1">
          <mxGeometry width="50" height="50" relative="1" as="geometry">
            <mxPoint x="881.02" y="9028.51" as="sourcePoint" />
            <mxPoint x="805" y="9044.51" as="targetPoint" />
            <Array as="points">
              <mxPoint x="881" y="9045" />
              <mxPoint x="850" y="9044.51" />
            </Array>
          </mxGeometry>
        </mxCell>
        <mxCell id="ir6YCfh4k-mO9yrdAhlO-363" value="Check" style="rounded=1;whiteSpace=wrap;html=1;labelBackgroundColor=#ffffff;" vertex="1" parent="1">
          <mxGeometry x="850" y="9148.51" width="60" height="30" as="geometry" />
        </mxCell>
        <mxCell id="ir6YCfh4k-mO9yrdAhlO-364" value="" style="endArrow=classic;html=1;entryX=0.5;entryY=0;entryDx=0;entryDy=0;" edge="1" parent="1">
          <mxGeometry width="50" height="50" relative="1" as="geometry">
            <mxPoint x="805" y="9128.51" as="sourcePoint" />
            <mxPoint x="884" y="9148.51" as="targetPoint" />
            <Array as="points">
              <mxPoint x="820" y="9128.51" />
              <mxPoint x="850" y="9128.51" />
              <mxPoint x="884" y="9128.51" />
            </Array>
          </mxGeometry>
        </mxCell>
        <mxCell id="ir6YCfh4k-mO9yrdAhlO-365" value="" style="endArrow=classic;html=1;exitX=0.517;exitY=1.117;exitDx=0;exitDy=0;exitPerimeter=0;" edge="1" parent="1">
          <mxGeometry width="50" height="50" relative="1" as="geometry">
            <mxPoint x="881.02" y="9178.51" as="sourcePoint" />
            <mxPoint x="805" y="9194.51" as="targetPoint" />
            <Array as="points">
              <mxPoint x="881" y="9195" />
              <mxPoint x="850" y="9194.51" />
            </Array>
          </mxGeometry>
        </mxCell>
        <mxCell id="ir6YCfh4k-mO9yrdAhlO-366" value="Check" style="rounded=1;whiteSpace=wrap;html=1;labelBackgroundColor=#ffffff;" vertex="1" parent="1">
          <mxGeometry x="850" y="9318.51" width="60" height="30" as="geometry" />
        </mxCell>
        <mxCell id="ir6YCfh4k-mO9yrdAhlO-367" value="" style="endArrow=classic;html=1;entryX=0.5;entryY=0;entryDx=0;entryDy=0;" edge="1" parent="1">
          <mxGeometry width="50" height="50" relative="1" as="geometry">
            <mxPoint x="805" y="9298.51" as="sourcePoint" />
            <mxPoint x="884" y="9318.51" as="targetPoint" />
            <Array as="points">
              <mxPoint x="820" y="9298.51" />
              <mxPoint x="850" y="9298.51" />
              <mxPoint x="884" y="9298.51" />
            </Array>
          </mxGeometry>
        </mxCell>
        <mxCell id="ir6YCfh4k-mO9yrdAhlO-368" value="" style="endArrow=classic;html=1;exitX=0.517;exitY=1.117;exitDx=0;exitDy=0;exitPerimeter=0;" edge="1" parent="1">
          <mxGeometry width="50" height="50" relative="1" as="geometry">
            <mxPoint x="881.02" y="9348.51" as="sourcePoint" />
            <mxPoint x="805" y="9364.51" as="targetPoint" />
            <Array as="points">
              <mxPoint x="881" y="9365" />
              <mxPoint x="850" y="9364.51" />
            </Array>
          </mxGeometry>
        </mxCell>
        <mxCell id="ir6YCfh4k-mO9yrdAhlO-369" value="" style="endArrow=classic;html=1;exitX=-0.2;exitY=0.017;exitDx=0;exitDy=0;exitPerimeter=0;entryX=1.05;entryY=0.017;entryDx=0;entryDy=0;entryPerimeter=0;" edge="1" parent="1">
          <mxGeometry width="50" height="50" relative="1" as="geometry">
            <mxPoint x="793.75" y="8560" as="sourcePoint" />
            <mxPoint x="156.25" y="8560" as="targetPoint" />
          </mxGeometry>
        </mxCell>
        <mxCell id="ir6YCfh4k-mO9yrdAhlO-370" value="" style="endArrow=classic;html=1;exitX=-0.2;exitY=0.017;exitDx=0;exitDy=0;exitPerimeter=0;entryX=1.05;entryY=0.017;entryDx=0;entryDy=0;entryPerimeter=0;" edge="1" parent="1">
          <mxGeometry width="50" height="50" relative="1" as="geometry">
            <mxPoint x="793.75" y="8730" as="sourcePoint" />
            <mxPoint x="156.25" y="8730" as="targetPoint" />
          </mxGeometry>
        </mxCell>
        <mxCell id="ir6YCfh4k-mO9yrdAhlO-371" value="" style="endArrow=classic;html=1;exitX=-0.2;exitY=0.017;exitDx=0;exitDy=0;exitPerimeter=0;entryX=1.05;entryY=0.017;entryDx=0;entryDy=0;entryPerimeter=0;" edge="1" parent="1">
          <mxGeometry width="50" height="50" relative="1" as="geometry">
            <mxPoint x="793.75" y="8925" as="sourcePoint" />
            <mxPoint x="156.25" y="8925" as="targetPoint" />
          </mxGeometry>
        </mxCell>
        <mxCell id="ir6YCfh4k-mO9yrdAhlO-372" value="" style="endArrow=classic;html=1;exitX=-0.2;exitY=0.017;exitDx=0;exitDy=0;exitPerimeter=0;entryX=1.05;entryY=0.017;entryDx=0;entryDy=0;entryPerimeter=0;" edge="1" parent="1">
          <mxGeometry width="50" height="50" relative="1" as="geometry">
            <mxPoint x="793.75" y="9060" as="sourcePoint" />
            <mxPoint x="156.25" y="9060" as="targetPoint" />
          </mxGeometry>
        </mxCell>
        <mxCell id="ir6YCfh4k-mO9yrdAhlO-373" value="" style="endArrow=classic;html=1;exitX=-0.2;exitY=0.017;exitDx=0;exitDy=0;exitPerimeter=0;entryX=1.05;entryY=0.017;entryDx=0;entryDy=0;entryPerimeter=0;" edge="1" parent="1">
          <mxGeometry width="50" height="50" relative="1" as="geometry">
            <mxPoint x="793.75" y="9210" as="sourcePoint" />
            <mxPoint x="156.25" y="9210" as="targetPoint" />
          </mxGeometry>
        </mxCell>
        <mxCell id="ir6YCfh4k-mO9yrdAhlO-374" value="" style="endArrow=classic;html=1;exitX=-0.2;exitY=0.017;exitDx=0;exitDy=0;exitPerimeter=0;entryX=1.05;entryY=0.017;entryDx=0;entryDy=0;entryPerimeter=0;" edge="1" parent="1">
          <mxGeometry width="50" height="50" relative="1" as="geometry">
            <mxPoint x="793.75" y="9380" as="sourcePoint" />
            <mxPoint x="156.25" y="9380" as="targetPoint" />
          </mxGeometry>
        </mxCell>
        <mxCell id="ir6YCfh4k-mO9yrdAhlO-375" value="Check" style="rounded=1;whiteSpace=wrap;html=1;labelBackgroundColor=#ffffff;" vertex="1" parent="1">
          <mxGeometry x="850" y="9510" width="60" height="30" as="geometry" />
        </mxCell>
        <mxCell id="ir6YCfh4k-mO9yrdAhlO-376" value="" style="endArrow=classic;html=1;entryX=0.5;entryY=0;entryDx=0;entryDy=0;" edge="1" parent="1">
          <mxGeometry width="50" height="50" relative="1" as="geometry">
            <mxPoint x="805" y="9490" as="sourcePoint" />
            <mxPoint x="884" y="9510" as="targetPoint" />
            <Array as="points">
              <mxPoint x="820" y="9490" />
              <mxPoint x="850" y="9490" />
              <mxPoint x="884" y="9490" />
            </Array>
          </mxGeometry>
        </mxCell>
        <mxCell id="ir6YCfh4k-mO9yrdAhlO-377" value="" style="endArrow=classic;html=1;exitX=0.517;exitY=1.117;exitDx=0;exitDy=0;exitPerimeter=0;" edge="1" parent="1">
          <mxGeometry width="50" height="50" relative="1" as="geometry">
            <mxPoint x="881.02" y="9540" as="sourcePoint" />
            <mxPoint x="805" y="9556" as="targetPoint" />
            <Array as="points">
              <mxPoint x="881" y="9556.49" />
              <mxPoint x="850" y="9556" />
            </Array>
          </mxGeometry>
        </mxCell>
        <mxCell id="ir6YCfh4k-mO9yrdAhlO-378" value="Check" style="rounded=1;whiteSpace=wrap;html=1;labelBackgroundColor=#ffffff;" vertex="1" parent="1">
          <mxGeometry x="850" y="9703.51" width="60" height="30" as="geometry" />
        </mxCell>
        <mxCell id="ir6YCfh4k-mO9yrdAhlO-379" value="" style="endArrow=classic;html=1;entryX=0.5;entryY=0;entryDx=0;entryDy=0;" edge="1" parent="1">
          <mxGeometry width="50" height="50" relative="1" as="geometry">
            <mxPoint x="805" y="9683.51" as="sourcePoint" />
            <mxPoint x="884" y="9703.51" as="targetPoint" />
            <Array as="points">
              <mxPoint x="820" y="9683.51" />
              <mxPoint x="850" y="9683.51" />
              <mxPoint x="884" y="9683.51" />
            </Array>
          </mxGeometry>
        </mxCell>
        <mxCell id="ir6YCfh4k-mO9yrdAhlO-380" value="" style="endArrow=classic;html=1;exitX=0.517;exitY=1.117;exitDx=0;exitDy=0;exitPerimeter=0;" edge="1" parent="1">
          <mxGeometry width="50" height="50" relative="1" as="geometry">
            <mxPoint x="881.02" y="9733.51" as="sourcePoint" />
            <mxPoint x="805" y="9749.51" as="targetPoint" />
            <Array as="points">
              <mxPoint x="881" y="9750" />
              <mxPoint x="850" y="9749.51" />
            </Array>
          </mxGeometry>
        </mxCell>
        <mxCell id="ir6YCfh4k-mO9yrdAhlO-381" value="Check" style="rounded=1;whiteSpace=wrap;html=1;labelBackgroundColor=#ffffff;" vertex="1" parent="1">
          <mxGeometry x="850" y="9833.51" width="60" height="30" as="geometry" />
        </mxCell>
        <mxCell id="ir6YCfh4k-mO9yrdAhlO-382" value="" style="endArrow=classic;html=1;entryX=0.5;entryY=0;entryDx=0;entryDy=0;" edge="1" parent="1">
          <mxGeometry width="50" height="50" relative="1" as="geometry">
            <mxPoint x="805" y="9813.51" as="sourcePoint" />
            <mxPoint x="884" y="9833.51" as="targetPoint" />
            <Array as="points">
              <mxPoint x="820" y="9813.51" />
              <mxPoint x="850" y="9813.51" />
              <mxPoint x="884" y="9813.51" />
            </Array>
          </mxGeometry>
        </mxCell>
        <mxCell id="ir6YCfh4k-mO9yrdAhlO-383" value="" style="endArrow=classic;html=1;exitX=0.517;exitY=1.117;exitDx=0;exitDy=0;exitPerimeter=0;" edge="1" parent="1">
          <mxGeometry width="50" height="50" relative="1" as="geometry">
            <mxPoint x="881.02" y="9863.51" as="sourcePoint" />
            <mxPoint x="805" y="9879.51" as="targetPoint" />
            <Array as="points">
              <mxPoint x="881" y="9880" />
              <mxPoint x="850" y="9879.51" />
            </Array>
          </mxGeometry>
        </mxCell>
        <mxCell id="ir6YCfh4k-mO9yrdAhlO-384" value="Check" style="rounded=1;whiteSpace=wrap;html=1;labelBackgroundColor=#ffffff;" vertex="1" parent="1">
          <mxGeometry x="850" y="9983.51" width="60" height="30" as="geometry" />
        </mxCell>
        <mxCell id="ir6YCfh4k-mO9yrdAhlO-385" value="" style="endArrow=classic;html=1;entryX=0.5;entryY=0;entryDx=0;entryDy=0;" edge="1" parent="1">
          <mxGeometry width="50" height="50" relative="1" as="geometry">
            <mxPoint x="805" y="9963.51" as="sourcePoint" />
            <mxPoint x="884" y="9983.51" as="targetPoint" />
            <Array as="points">
              <mxPoint x="820" y="9963.51" />
              <mxPoint x="850" y="9963.51" />
              <mxPoint x="884" y="9963.51" />
            </Array>
          </mxGeometry>
        </mxCell>
        <mxCell id="ir6YCfh4k-mO9yrdAhlO-386" value="" style="endArrow=classic;html=1;exitX=0.517;exitY=1.117;exitDx=0;exitDy=0;exitPerimeter=0;" edge="1" parent="1">
          <mxGeometry width="50" height="50" relative="1" as="geometry">
            <mxPoint x="881.02" y="10013.51" as="sourcePoint" />
            <mxPoint x="805" y="10029.51" as="targetPoint" />
            <Array as="points">
              <mxPoint x="881" y="10030" />
              <mxPoint x="850" y="10029.51" />
            </Array>
          </mxGeometry>
        </mxCell>
        <mxCell id="ir6YCfh4k-mO9yrdAhlO-387" value="Check" style="rounded=1;whiteSpace=wrap;html=1;labelBackgroundColor=#ffffff;" vertex="1" parent="1">
          <mxGeometry x="850" y="10153.51" width="60" height="30" as="geometry" />
        </mxCell>
        <mxCell id="ir6YCfh4k-mO9yrdAhlO-388" value="" style="endArrow=classic;html=1;entryX=0.5;entryY=0;entryDx=0;entryDy=0;" edge="1" parent="1">
          <mxGeometry width="50" height="50" relative="1" as="geometry">
            <mxPoint x="805" y="10133.51" as="sourcePoint" />
            <mxPoint x="884" y="10153.51" as="targetPoint" />
            <Array as="points">
              <mxPoint x="820" y="10133.51" />
              <mxPoint x="850" y="10133.51" />
              <mxPoint x="884" y="10133.51" />
            </Array>
          </mxGeometry>
        </mxCell>
        <mxCell id="ir6YCfh4k-mO9yrdAhlO-389" value="" style="endArrow=classic;html=1;exitX=0.517;exitY=1.117;exitDx=0;exitDy=0;exitPerimeter=0;" edge="1" parent="1">
          <mxGeometry width="50" height="50" relative="1" as="geometry">
            <mxPoint x="881.02" y="10183.51" as="sourcePoint" />
            <mxPoint x="805" y="10199.51" as="targetPoint" />
            <Array as="points">
              <mxPoint x="881" y="10200" />
              <mxPoint x="850" y="10199.51" />
            </Array>
          </mxGeometry>
        </mxCell>
        <mxCell id="ir6YCfh4k-mO9yrdAhlO-390" value="" style="endArrow=classic;html=1;exitX=-0.2;exitY=0.017;exitDx=0;exitDy=0;exitPerimeter=0;entryX=1.05;entryY=0.017;entryDx=0;entryDy=0;entryPerimeter=0;" edge="1" parent="1">
          <mxGeometry width="50" height="50" relative="1" as="geometry">
            <mxPoint x="793.75" y="9569.5" as="sourcePoint" />
            <mxPoint x="156.25" y="9569.5" as="targetPoint" />
          </mxGeometry>
        </mxCell>
        <mxCell id="ir6YCfh4k-mO9yrdAhlO-391" value="" style="endArrow=classic;html=1;exitX=-0.2;exitY=0.017;exitDx=0;exitDy=0;exitPerimeter=0;entryX=1.05;entryY=0.017;entryDx=0;entryDy=0;entryPerimeter=0;" edge="1" parent="1">
          <mxGeometry width="50" height="50" relative="1" as="geometry">
            <mxPoint x="793.75" y="9760" as="sourcePoint" />
            <mxPoint x="156.25" y="9760" as="targetPoint" />
          </mxGeometry>
        </mxCell>
        <mxCell id="ir6YCfh4k-mO9yrdAhlO-392" value="" style="endArrow=classic;html=1;exitX=-0.2;exitY=0.017;exitDx=0;exitDy=0;exitPerimeter=0;entryX=1.05;entryY=0.017;entryDx=0;entryDy=0;entryPerimeter=0;" edge="1" parent="1">
          <mxGeometry width="50" height="50" relative="1" as="geometry">
            <mxPoint x="793.75" y="9890" as="sourcePoint" />
            <mxPoint x="156.25" y="9890" as="targetPoint" />
          </mxGeometry>
        </mxCell>
        <mxCell id="ir6YCfh4k-mO9yrdAhlO-393" value="" style="endArrow=classic;html=1;exitX=-0.2;exitY=0.017;exitDx=0;exitDy=0;exitPerimeter=0;entryX=1.05;entryY=0.017;entryDx=0;entryDy=0;entryPerimeter=0;" edge="1" parent="1">
          <mxGeometry width="50" height="50" relative="1" as="geometry">
            <mxPoint x="793.75" y="10040" as="sourcePoint" />
            <mxPoint x="156.25" y="10040" as="targetPoint" />
          </mxGeometry>
        </mxCell>
        <mxCell id="ir6YCfh4k-mO9yrdAhlO-394" value="" style="endArrow=classic;html=1;exitX=-0.2;exitY=0.017;exitDx=0;exitDy=0;exitPerimeter=0;entryX=1.05;entryY=0.017;entryDx=0;entryDy=0;entryPerimeter=0;" edge="1" parent="1">
          <mxGeometry width="50" height="50" relative="1" as="geometry">
            <mxPoint x="793.75" y="10220" as="sourcePoint" />
            <mxPoint x="156.25" y="10220" as="targetPoint" />
          </mxGeometry>
        </mxCell>
        <mxCell id="ir6YCfh4k-mO9yrdAhlO-395" value="Check" style="rounded=1;whiteSpace=wrap;html=1;labelBackgroundColor=#ffffff;" vertex="1" parent="1">
          <mxGeometry x="850" y="4663.51" width="60" height="30" as="geometry" />
        </mxCell>
        <mxCell id="ir6YCfh4k-mO9yrdAhlO-396" value="" style="endArrow=classic;html=1;entryX=0.5;entryY=0;entryDx=0;entryDy=0;" edge="1" parent="1">
          <mxGeometry width="50" height="50" relative="1" as="geometry">
            <mxPoint x="805" y="4643.51" as="sourcePoint" />
            <mxPoint x="884" y="4663.51" as="targetPoint" />
            <Array as="points">
              <mxPoint x="820" y="4643.51" />
              <mxPoint x="850" y="4643.51" />
              <mxPoint x="884" y="4643.51" />
            </Array>
          </mxGeometry>
        </mxCell>
        <mxCell id="ir6YCfh4k-mO9yrdAhlO-397" value="" style="endArrow=classic;html=1;exitX=0.517;exitY=1.117;exitDx=0;exitDy=0;exitPerimeter=0;" edge="1" parent="1">
          <mxGeometry width="50" height="50" relative="1" as="geometry">
            <mxPoint x="881.02" y="4693.51" as="sourcePoint" />
            <mxPoint x="805" y="4709.51" as="targetPoint" />
            <Array as="points">
              <mxPoint x="881" y="4710" />
              <mxPoint x="850" y="4709.51" />
            </Array>
          </mxGeometry>
        </mxCell>
        <mxCell id="ir6YCfh4k-mO9yrdAhlO-398" value="Check" style="rounded=1;whiteSpace=wrap;html=1;labelBackgroundColor=#ffffff;" vertex="1" parent="1">
          <mxGeometry x="850" y="4793.51" width="60" height="30" as="geometry" />
        </mxCell>
        <mxCell id="ir6YCfh4k-mO9yrdAhlO-399" value="" style="endArrow=classic;html=1;entryX=0.5;entryY=0;entryDx=0;entryDy=0;" edge="1" parent="1">
          <mxGeometry width="50" height="50" relative="1" as="geometry">
            <mxPoint x="805" y="4773.51" as="sourcePoint" />
            <mxPoint x="884" y="4793.51" as="targetPoint" />
            <Array as="points">
              <mxPoint x="820" y="4773.51" />
              <mxPoint x="850" y="4773.51" />
              <mxPoint x="884" y="4773.51" />
            </Array>
          </mxGeometry>
        </mxCell>
        <mxCell id="ir6YCfh4k-mO9yrdAhlO-400" value="" style="endArrow=classic;html=1;exitX=0.517;exitY=1.117;exitDx=0;exitDy=0;exitPerimeter=0;" edge="1" parent="1">
          <mxGeometry width="50" height="50" relative="1" as="geometry">
            <mxPoint x="881.02" y="4823.51" as="sourcePoint" />
            <mxPoint x="805" y="4839.51" as="targetPoint" />
            <Array as="points">
              <mxPoint x="881" y="4840" />
              <mxPoint x="850" y="4839.51" />
            </Array>
          </mxGeometry>
        </mxCell>
        <mxCell id="ir6YCfh4k-mO9yrdAhlO-401" value="Check" style="rounded=1;whiteSpace=wrap;html=1;labelBackgroundColor=#ffffff;" vertex="1" parent="1">
          <mxGeometry x="850" y="4943.51" width="60" height="30" as="geometry" />
        </mxCell>
        <mxCell id="ir6YCfh4k-mO9yrdAhlO-402" value="" style="endArrow=classic;html=1;entryX=0.5;entryY=0;entryDx=0;entryDy=0;" edge="1" parent="1">
          <mxGeometry width="50" height="50" relative="1" as="geometry">
            <mxPoint x="805" y="4923.51" as="sourcePoint" />
            <mxPoint x="884" y="4943.51" as="targetPoint" />
            <Array as="points">
              <mxPoint x="820" y="4923.51" />
              <mxPoint x="850" y="4923.51" />
              <mxPoint x="884" y="4923.51" />
            </Array>
          </mxGeometry>
        </mxCell>
        <mxCell id="ir6YCfh4k-mO9yrdAhlO-403" value="" style="endArrow=classic;html=1;exitX=0.517;exitY=1.117;exitDx=0;exitDy=0;exitPerimeter=0;" edge="1" parent="1">
          <mxGeometry width="50" height="50" relative="1" as="geometry">
            <mxPoint x="881.02" y="4973.51" as="sourcePoint" />
            <mxPoint x="805" y="4989.51" as="targetPoint" />
            <Array as="points">
              <mxPoint x="881" y="4990" />
              <mxPoint x="850" y="4989.51" />
            </Array>
          </mxGeometry>
        </mxCell>
        <mxCell id="ir6YCfh4k-mO9yrdAhlO-404" value="Check" style="rounded=1;whiteSpace=wrap;html=1;labelBackgroundColor=#ffffff;" vertex="1" parent="1">
          <mxGeometry x="850" y="5070" width="60" height="30" as="geometry" />
        </mxCell>
        <mxCell id="ir6YCfh4k-mO9yrdAhlO-405" value="" style="endArrow=classic;html=1;entryX=0.5;entryY=0;entryDx=0;entryDy=0;" edge="1" parent="1">
          <mxGeometry width="50" height="50" relative="1" as="geometry">
            <mxPoint x="805" y="5050" as="sourcePoint" />
            <mxPoint x="884" y="5070" as="targetPoint" />
            <Array as="points">
              <mxPoint x="820" y="5050" />
              <mxPoint x="850" y="5050" />
              <mxPoint x="884" y="5050" />
            </Array>
          </mxGeometry>
        </mxCell>
        <mxCell id="ir6YCfh4k-mO9yrdAhlO-406" value="" style="endArrow=classic;html=1;exitX=0.517;exitY=1.117;exitDx=0;exitDy=0;exitPerimeter=0;" edge="1" parent="1">
          <mxGeometry width="50" height="50" relative="1" as="geometry">
            <mxPoint x="881.02" y="5100" as="sourcePoint" />
            <mxPoint x="805" y="5116" as="targetPoint" />
            <Array as="points">
              <mxPoint x="881" y="5116.49" />
              <mxPoint x="850" y="5116" />
            </Array>
          </mxGeometry>
        </mxCell>
        <mxCell id="ir6YCfh4k-mO9yrdAhlO-408" value="" style="endArrow=classic;html=1;entryX=0.5;entryY=0;entryDx=0;entryDy=0;" edge="1" parent="1">
          <mxGeometry width="50" height="50" relative="1" as="geometry">
            <mxPoint x="805" y="5283.51" as="sourcePoint" />
            <mxPoint x="884" y="5303.51" as="targetPoint" />
            <Array as="points">
              <mxPoint x="820" y="5283.51" />
              <mxPoint x="850" y="5283.51" />
              <mxPoint x="884" y="5283.51" />
            </Array>
          </mxGeometry>
        </mxCell>
        <mxCell id="ir6YCfh4k-mO9yrdAhlO-410" value="Check" style="rounded=1;whiteSpace=wrap;html=1;labelBackgroundColor=#ffffff;" vertex="1" parent="1">
          <mxGeometry x="850" y="5180" width="60" height="30" as="geometry" />
        </mxCell>
        <mxCell id="ir6YCfh4k-mO9yrdAhlO-411" value="" style="endArrow=classic;html=1;entryX=0.5;entryY=0;entryDx=0;entryDy=0;" edge="1" parent="1">
          <mxGeometry width="50" height="50" relative="1" as="geometry">
            <mxPoint x="805" y="5160" as="sourcePoint" />
            <mxPoint x="884" y="5180" as="targetPoint" />
            <Array as="points">
              <mxPoint x="820" y="5160" />
              <mxPoint x="850" y="5160" />
              <mxPoint x="884" y="5160" />
            </Array>
          </mxGeometry>
        </mxCell>
        <mxCell id="ir6YCfh4k-mO9yrdAhlO-412" value="" style="endArrow=classic;html=1;exitX=0.517;exitY=1.117;exitDx=0;exitDy=0;exitPerimeter=0;" edge="1" parent="1">
          <mxGeometry width="50" height="50" relative="1" as="geometry">
            <mxPoint x="881.02" y="5210" as="sourcePoint" />
            <mxPoint x="805" y="5226" as="targetPoint" />
            <Array as="points">
              <mxPoint x="881" y="5226.49" />
              <mxPoint x="850" y="5226" />
            </Array>
          </mxGeometry>
        </mxCell>
      </root>
    </mxGraphModel>
  </diagram>
</mxfile>
